<svg id="Warstwa_1" xmlns="http://www.w3.org/2000/svg" xmlns:xlink="http://www.w3.org/1999/xlink" viewBox="0 0 450.8 138.4"><style>.st0{fill:#0063af}.st1{clip-path:url(#SVGID_2_);fill:#fff}</style><path class="st0" d="M0 0h450.8v138.4H0z"/><defs><path id="SVGID_1_" d="M0 0h450.8v138.4H0z"/></defs><clipPath id="SVGID_2_"><use xlink:href="#SVGID_1_" overflow="visible"/></clipPath><path class="st1" d="M103.7 33.8zm0 16.9V33.9c0-.6.5-1 1.1-1 5.7.3 10.9.8 15.4 1.5.4.1.8.3.9.7v.1c0 .1 0 .2.1.4.5 3.7 1.1 9.6 1.4 14.9 0 0 .1 1.2-1.1 1.2h-16.7c-.6 0-1.1-.4-1.1-1M69.1 104.1V86.3v1.1c0-.6-.5-1.1-1.1-1.1H51.3c-1.2 0-1.1 1.2-1.1 1.2.3 5.3.9 11.2 1.4 14.9 0 .2 0 .3.1.4v.1c.1.4.5.7.9.7 4.5.6 9.7 1.1 15.4 1.5.6.1 1.1-.4 1.1-1m0 0M88.6 50.5s0 1.2 1.2 1.2h8.4s1.2 0 1.2-1.2V33.8s0-1.2-1.2-1.2c-2.3-.1-5.9-.2-8.4-.2 0 0-1.2 0-1.2 1.2v16.9M86.4 104.5V86.6v.7c0-.6-.5-1.1-1.1-1.1h.7H74.7s-1.2 0-1.2 1.2v16.8s0 1.2 1.2 1.2c2.9.1 7.3.2 10.6.2-.1.1 1.1.1 1.1-1.1M73.5 50.5s0 1.2 1.2 1.2h8.4s1.2 0 1.2-1.2v-17s0-1.2-1.2-1.2c-2.5 0-6.1.1-8.4.2 0 0-1.2 0-1.2 1.2v16.8M64.6 82H68s1.2 0 1.2-1.2v-8.4s0-1.2-1.2-1.2H51s-1.2 0-1.2 1.2c0 2.5.1 6.1.2 8.4 0 0 0 1.2 1.2 1.2h13.4M49.7 65.7s0 1.2 1.2 1.2h17s1.2 0 1.2-1.2v-8.4s0-1.2-1.2-1.2H51.2s-1.2 0-1.2 1.2c-.2 2.2-.2 5.8-.3 8.4M69.1 33.8zm0 16.9V33.9c0-.6-.5-1-1.1-1-5.7.3-10.9.8-15.4 1.5-.4.1-.8.3-.9.7v.1c0 .1 0 .2-.1.4-.5 3.7-1.1 9.6-1.4 14.9 0 0-.1 1.2 1.1 1.2H68c.7 0 1.1-.4 1.1-1M103.7 82s0 1.2.8 2l16 16s.8.8 1-.3c.8-6.4 1.4-15.9 1.6-25.2 0 0 0-1.2-1.2-1.2h-17.2s-1 0-1 1V82M123.1 67.9c0-4.1-.1-8-.2-10.7 0 0 0-1.2-1.2-1.2h-16.8s-1.2 0-1.2 1.2v10.5s0 1.2 1.2 1.2H122c.6.1 1.1-.4 1.1-1M117.4 103.1l-16.3-16.3c-.4-.3-.8-.5-1.1-.5h-8.1s-1.2 0-1.2 1.2v17s0 1.2 1.2 1.2c9.3-.1 18.8-.8 25.2-1.6 0 0 1.2-.2.3-1M376.2 83.2c1.4 4.2 2.7 8.1 4 11.8h7.3c1-2.3 2.1-4.9 3.2-7.8 1.1-2.9 2.2-6.1 3.3-9.4 1.1-3.3 2.2-6.8 3.3-10.5 1.1-3.7 2.2-7.4 3.2-11.3h-9.3c-.5 2.1-1 4.3-1.6 6.8-.6 2.4-1.2 4.9-1.9 7.4s-1.4 5-2.1 7.4c-.7 2.4-1.4 4.6-2 6.6-.7-2.3-1.5-4.7-2.2-7.1-.7-2.4-1.4-4.9-2-7.3-.6-2.4-1.2-4.8-1.8-7.1-.5-2.3-1-4.5-1.5-6.5h-6.9c-.4 2-1 4.2-1.5 6.5-.6 2.3-1.2 4.7-1.8 7.1-.6 2.4-1.3 4.9-2.1 7.3-.7 2.4-1.5 4.8-2.2 7.1-.7-2-1.4-4.2-2.1-6.6-.7-2.4-1.4-4.8-2-7.4-.7-2.5-1.3-5-1.9-7.4-.6-2.4-1.1-4.7-1.6-6.8h-9.6c1 3.8 2.1 7.6 3.2 11.3 1.1 3.7 2.2 7.2 3.3 10.5 1.1 3.3 2.2 6.5 3.3 9.4 1.1 2.9 2.1 5.6 3.1 7.8h7.4c1.3-3.7 2.6-7.6 3.9-11.8 1.3-4.2 2.6-8.4 3.7-12.8 1.3 4.4 2.6 8.6 3.9 12.8m-50.4-48.6l-11 13.1 4.5 4 12.2-11.8-5.7-5.3zm2.9 50.1c-1.7 2.3-4 3.4-7 3.4s-5.3-1.1-7-3.4c-1.7-2.3-2.5-5.4-2.5-9.3 0-3.9.8-7 2.5-9.2 1.7-2.3 4-3.4 7-3.4s5.3 1.1 7 3.4c1.7 2.3 2.5 5.3 2.5 9.2 0 3.9-.8 7-2.5 9.3M339.1 67c-.9-2.5-2.2-4.7-3.8-6.5-1.6-1.8-3.6-3.2-5.9-4.1-2.3-1-4.8-1.5-7.6-1.5s-5.3.5-7.5 1.5c-2.3 1-4.3 2.4-5.9 4.1-1.7 1.8-3 3.9-3.9 6.5-.9 2.5-1.4 5.3-1.4 8.4 0 3.1.5 5.9 1.4 8.4.9 2.5 2.2 4.7 3.8 6.5 1.6 1.8 3.6 3.2 5.9 4.2 2.3 1 4.8 1.5 7.6 1.5s5.3-.5 7.7-1.5c2.3-1 4.3-2.4 5.9-4.2 1.6-1.8 2.9-4 3.8-6.5.9-2.5 1.3-5.4 1.3-8.4 0-3.1-.5-5.9-1.4-8.4m-62.7-30l-9 1.5V95h9V77c1.3 1 2.7 2.2 4.1 3.6 1.4 1.4 2.8 2.9 4.1 4.5 1.3 1.6 2.6 3.2 3.8 4.9 1.2 1.7 2.2 3.3 3.1 4.9H302c-.9-1.7-2-3.5-3.4-5.5-1.3-2-2.8-4-4.3-6s-3.1-3.9-4.8-5.6c-1.6-1.8-3.2-3.3-4.7-4.5 2.8-2.8 5.6-5.8 8.3-8.7 2.8-3 5.4-5.9 7.9-8.7h-10.7c-.8.9-1.8 2.1-2.9 3.3-1.1 1.3-2.3 2.6-3.5 4-1.2 1.4-2.5 2.7-3.8 4.1-1.3 1.4-2.5 2.7-3.7 3.8V37zm-41.6 18.5c-2.2.4-3.9.8-5 1.2L231 64c1.1-.4 2.5-.7 4.3-1 1.7-.3 3.7-.4 5.8-.4 1.5 0 2.8.2 3.8.6 1 .4 1.8 1 2.5 1.7.6.7 1.1 1.6 1.3 2.5.2.9.4 1.9.4 3v1.5c-1.2-.3-2.4-.5-3.5-.6-1.1-.1-2.1-.2-3.1-.2-2.1 0-4.2.2-6.2.6-2 .4-3.7 1.1-5.2 2.1s-2.7 2.2-3.5 3.8c-.9 1.5-1.3 3.4-1.3 5.7 0 2.3.4 4.3 1.2 5.9.8 1.6 1.8 2.9 3.2 3.9 1.4 1 3 1.7 5 2.2 1.9.4 4.1.7 6.4.7 3.5 0 6.7-.2 9.5-.6 2.8-.4 4.9-.8 6.3-1.1V70.4c0-2.3-.3-4.4-.8-6.3-.5-1.9-1.4-3.5-2.6-4.9-1.2-1.3-2.9-2.4-4.9-3.1-2-.7-4.6-1.1-7.5-1.1-2.7-.1-5.1.1-7.3.5m2.4 31.9c-1.3-.8-2-2.3-2-4.4 0-1.1.2-2 .7-2.7.5-.7 1.2-1.3 2-1.7.8-.4 1.7-.7 2.8-.8 1-.1 2-.2 3-.2 1.1 0 2.2.1 3.1.2.9.1 1.7.3 2.2.4v10c-1.4.3-3.6.4-6.4.4-2.3 0-4.1-.4-5.4-1.2m-12.2-31c-.4-.1-1-.3-1.8-.5-.7-.2-1.5-.3-2.3-.4l-2.4-.3c-.8-.1-1.5-.1-2.1-.1-3.2 0-6.1.3-8.7.9-2.6.6-4.8 1.2-6.5 1.8V95h9V63.7c.4-.1 1.2-.3 2.4-.5 1.1-.2 2.2-.3 3.2-.3 1.7 0 3.3.1 4.6.4 1.3.3 2.4.5 3.1.8l1.5-7.7zM198 95c-1.6-2.6-3.3-5.2-5.3-7.8-1.9-2.6-3.9-5.1-6-7.5-2.1-2.4-4.2-4.7-6.4-6.8-2.2-2.1-4.3-4-6.4-5.6 1.9-1.8 3.8-3.8 5.8-5.8s3.9-4.1 5.9-6.2c1.9-2.1 3.8-4.1 5.7-6.2 1.8-2 3.6-4 5.2-5.9h-11.3c-1.3 1.4-2.7 3.1-4.3 4.9-1.6 1.8-3.3 3.6-5 5.6-1.8 1.9-3.5 3.8-5.3 5.7-1.8 1.9-3.5 3.6-5.2 5.3V43.2H156V95h9.4V71.7c1.9 1.3 3.9 2.9 5.9 4.8 2 1.8 3.9 3.8 5.8 5.8s3.6 4.2 5.3 6.3c1.7 2.2 3.2 4.3 4.5 6.3H198z"/></svg>