<?xml version="1.0"?>
<svg xmlns="http://www.w3.org/2000/svg" xmlns:xlink="http://www.w3.org/1999/xlink" version="1.1" id="Capa_1" x="0px" y="0px" viewBox="0 0 60 60" style="enable-background:new 0 0 60 60;" xml:space="preserve" width="512px" height="512px" class=""><g transform="matrix(-1.83697e-16 -1 1 -1.83697e-16 1.06581e-14 60)"><g>
	<g>
		<path d="M56,0H4C1.8,0,0,1.8,0,4v21c0,0.6,0.4,1,1,1h58c0.6,0,1-0.4,1-1V4C60,1.8,58.2,0,56,0z M2,24V9h5V7H2V4c0-1.1,0.9-2,2-2    h52c1.1,0,2,0.9,2,2v3h-5v2h5v15H2z" data-original="#000000" class="active-path" data-old_color=" rgb(0, 0, 0)" fill="#000000"/>
		<path d="M55,16H5c-0.6,0-1,0.4-1,1v4h2v-3h48v3h2v-4C56,16.4,55.6,16,55,16z" data-original="#000000" class="active-path" data-old_color=" rgb(0, 0, 0)" fill="#000000"/>
		<rect x="8" y="19" width="44" height="2" data-original="#000000" class="active-path" data-old_color=" rgb(0, 0, 0)" fill="#000000"/>
		<path d="M24,11h12c0.6,0,1-0.4,1-1V6c0-0.6-0.4-1-1-1H24c-0.6,0-1,0.4-1,1v4C23,10.6,23.4,11,24,11z M25,7h10v2H25V7z" data-original="#000000" class="active-path" data-old_color=" rgb(0, 0, 0)" fill="#000000"/>
		<rect x="39" y="7" width="2" height="2" data-original="#000000" class="active-path" data-old_color=" rgb(0, 0, 0)" fill="#000000"/>
		<rect x="19" y="7" width="2" height="2" data-original="#000000" class="active-path" data-old_color=" rgb(0, 0, 0)" fill="#000000"/>
		<rect x="29" y="29" width="2" height="22" data-original="#000000" class="active-path" data-old_color=" rgb(0, 0, 0)" fill="#000000"/>
		<rect x="12" y="29" width="2" height="12" data-original="#000000" class="active-path" data-old_color=" rgb(0, 0, 0)" fill="#000000"/>
		<rect x="46" y="29" width="2" height="12" data-original="#000000" class="active-path" data-old_color=" rgb(0, 0, 0)" fill="#000000"/>
		<path d="M13,44c-1.7,0-3,1.3-3,3s1.3,3,3,3s3-1.3,3-3S14.7,44,13,44z M13,48c-0.6,0-1-0.4-1-1s0.4-1,1-1s1,0.4,1,1S13.6,48,13,48z    " data-original="#000000" class="active-path" data-old_color=" rgb(0, 0, 0)" fill="#000000"/>
		<path d="M30,54c-1.7,0-3,1.3-3,3s1.3,3,3,3s3-1.3,3-3S31.7,54,30,54z M30,58c-0.6,0-1-0.4-1-1s0.4-1,1-1s1,0.4,1,1S30.6,58,30,58z    " data-original="#000000" class="active-path" data-old_color=" rgb(0, 0, 0)" fill="#000000"/>
		<path d="M47,44c-1.7,0-3,1.3-3,3s1.3,3,3,3s3-1.3,3-3S48.7,44,47,44z M47,48c-0.6,0-1-0.4-1-1s0.4-1,1-1s1,0.4,1,1S47.6,48,47,48z    " data-original="#000000" class="active-path" data-old_color=" rgb(0, 0, 0)" fill="#000000"/>
		<rect x="37" y="29" width="2" height="2" data-original="#000000" class="active-path" data-old_color=" rgb(0, 0, 0)" fill="#000000"/>
		<rect x="21" y="29" width="2" height="2" data-original="#000000" class="active-path" data-old_color=" rgb(0, 0, 0)" fill="#000000"/>
		<rect x="21" y="34" width="2" height="2" data-original="#000000" class="active-path" data-old_color=" rgb(0, 0, 0)" fill="#000000"/>
		<rect x="37" y="34" width="2" height="2" data-original="#000000" class="active-path" data-old_color=" rgb(0, 0, 0)" fill="#000000"/>
		<rect x="37" y="39" width="2" height="2" data-original="#000000" class="active-path" data-old_color=" rgb(0, 0, 0)" fill="#000000"/>
		<rect x="21" y="39" width="2" height="2" data-original="#000000" class="active-path" data-old_color=" rgb(0, 0, 0)" fill="#000000"/>
	</g>
</g></g> </svg>
