<?xml version="1.0" encoding="utf-8"?>
<!-- Generator: Adobe Illustrator 19.0.0, SVG Export Plug-In . SVG Version: 6.00 Build 0)  -->
<svg version="1.1" id="Warstwa_1" xmlns="http://www.w3.org/2000/svg" xmlns:xlink="http://www.w3.org/1999/xlink" x="0px" y="0px"
	 viewBox="2978 -204 6552.5 1247.9" style="enable-background:new 2978 -204 6552.5 1247.9;" xml:space="preserve">
<style type="text/css">
	.st0{fill:#FED700;}
	.st1{fill:#231F20;}
</style>
<title>3</title>
<path class="st0" d="M3971.5,62.6c-4.4,0.6-8.4-2.5-9-6.9c-0.3-2.2,0.3-4.4,1.7-6.1c4.5-5.7,8.5-11.7,12-18.1
	c2.9-8.1,9.4-15.2,8.8-24c-2.2-69.7,19.9-146,89.8-163c8.4-2.6-2.5,18.2-3.4,29.3c0.1,5.9,4.1,11.1,9,11.1c10-0.8,19.6-3.9,28.2-9.2
	c6.1-2.9,11.5-7.1,15.6-12.5c12.4-15.7,14.6-39.2-0.1-55.5c7.1-5.8,18-1.2,25.5,2.4c2.9,1.7,5.7,3.6,8.2,5.8
	c5,4.2,9.3,9.2,12.8,14.8c1.7,2.9,3.2,6,4.3,9.1c3.6,9.9,3.6,20.7-0.1,30.5c-0.8,2.5-1.8,5-2.7,7.4c-2.9,7.3-6,14.6-7.8,22
	c-0.1,2.3,0.5,4.6,1.6,6.6c1.5,2.4,3.5,4.3,5.8,5.8c2.9,0.7,5.8,0.8,8.8,0.5c2.9,0.2,5.8,0.6,8.7,1.2c11.3,2.2,21,7.2,24.7,18.7
	c-7.1,0.4-14.2,1.7-21,3.8c-6.3,2-12.3,5.1-17.7,9c-5.3,4-9.9,8.7-13.6,14.1c-2.8,5.3-5.5,10.7-8.2,16c-23.4,68-97.7,77-159.3,84.2
	C3985.7,60.7,3978.1,61.7,3971.5,62.6z"/>
<path class="st1" d="M3970.4,71.7c-9.4,0-17-7.6-17-17c0-3.9,1.3-7.6,3.8-10.7c4.1-5.1,7.7-10.5,10.8-16.2c1.2-2.9,2.5-5.8,4.1-8.6
	c2.2-4.2,4.2-7.9,3.9-11c0-0.1,0-0.3,0-0.4c-0.9-27.9,1.6-68.8,18.7-105.3c16.4-35.1,43.3-58.2,77.8-66.7c3.9-1.3,8.3-0.3,11.2,2.6
	c5.5,5.5,3,13.5-0.1,23.6c-1.3,4.2-2.8,8.9-3.1,12c0.1,0.7,0.3,1.3,0.6,1.8c8.1-0.8,15.9-3.5,22.8-7.7c0.3-0.2,0.6-0.3,0.9-0.5
	c4.8-2.3,9.1-5.7,12.4-9.9c9.2-11.7,12.3-30.5,0.2-43.8c-3.3-3.7-3-9.4,0.7-12.7c0.1-0.1,0.2-0.2,0.3-0.3
	c12.1-9.9,28.2-2.1,35.1,1.3l0.5,0.3c3.4,1.9,6.6,4.2,9.6,6.7c5.7,4.8,10.7,10.5,14.7,16.9l0.1,0.1c2,3.4,3.7,7,5.1,10.7
	c4.3,11.8,4.3,24.8-0.1,36.5c-0.9,2.8-1.9,5.4-2.8,7.6c-0.5,1.2-0.9,2.3-1.3,3.4c-2.2,5.3-4.2,10.8-5.8,16.3
	c0.1,0.4,0.2,0.8,0.4,1.2c0.5,0.7,1,1.3,1.7,1.8c1.4,0.2,2.8,0.2,4.2,0c0.6-0.1,1.1-0.1,1.7,0c3.2,0.3,6.5,0.7,9.6,1.3
	c16.8,3.2,27.4,11.6,31.6,24.8c1.5,4.7-1.1,9.8-5.9,11.3c-0.7,0.2-1.4,0.4-2.1,0.4c-6.4,0.3-12.7,1.5-18.8,3.4
	c-5.4,1.7-10.6,4.3-15.2,7.7c-4.3,3.3-8.1,7.2-11.3,11.6c-1.8,3.5-3.6,7-5.4,10.5l-2.2,4.3c-11.4,32.6-34.4,55.4-70.3,69.7
	C4060.8,61,4026,65,3995.2,68.6c-8.3,1.1-15.9,2.1-22.5,3l0,0C3971.9,71.7,3971.2,71.7,3970.4,71.7z M3971.5,62.6L3971.5,62.6z
	 M3993.9,7c0.6,8.3-3.1,15.1-6,20.6c-1.2,2.2-2.3,4.5-3.3,6.8c-0.2,0.4-0.3,0.9-0.6,1.3c-3.3,6.2-7.1,12-11.4,17.6l20.1-2.7h0.1
	c58-6.8,130.2-15.2,151.9-78.2c0.1-0.4,0.3-0.8,0.5-1.2l2.5-4.9c1.9-3.7,3.8-7.5,5.8-11.2c0.2-0.3,0.3-0.6,0.5-0.9
	c8.7-12.6,21.4-22,36-26.6c2.3-0.8,4.7-1.4,7.1-2c-3.1-1.5-6.3-2.6-9.7-3.2c-2.1-0.4-4.4-0.7-7-1c-3.7,0.3-7.4,0.1-11-0.8
	c-1-0.2-1.9-0.7-2.8-1.2c-3.5-2.2-6.5-5.2-8.6-8.8l-0.1-0.1c-1.9-3.4-2.9-7.3-2.8-11.2c0-0.6,0.1-1.3,0.2-1.9
	c1.8-6.8,4.1-13.5,6.8-19.9l1.3-3.3c0.8-2,1.7-4.5,2.5-7l0.1-0.3c2.9-7.8,3-16.4,0.1-24.3c-0.9-2.6-2.1-5.1-3.5-7.5
	c-3-4.7-6.7-8.9-11-12.5c-2.1-1.8-4.3-3.3-6.6-4.7c-2.1-1-4-1.8-5.7-2.5c7.6,18.3,2.6,39.2-8.4,53.2c-4.9,6.3-11.2,11.3-18.4,14.8
	c-9.6,5.8-20.5,9.3-31.7,10.2c-0.3,0-0.6,0-0.9,0c-9.8-0.1-17.7-8.9-17.9-20c0-0.3,0-0.6,0-0.9c0.4-5,2.2-10.8,3.9-16.4l0.1-0.2
	C3995.8-117.9,3993-22.9,3993.9,7L3993.9,7z M4077.4-147L4077.4-147z"/>
<path class="st1" d="M4637.6,454h-69.2l-114.7-165.4l-35.2,28.7V454h-59.7V88.7h59.7v174.4c16.3-20,32.6-39.2,48.7-57.7l98.7-116.7
	h68c-63.8,75-109.5,128.4-137.2,160.2L4637.6,454z"/>
<path class="st1" d="M4755.8,308.1v145.9h-59.7V88.7h103.2c47.1,0,82,8.8,104.7,26.5c22.7,17.7,34,44.3,34,80
	c0,45.5-23.7,77.9-71,97.2l103.2,161.7h-68l-87.4-146H4755.8L4755.8,308.1z M4755.8,258.6h41.5c27.8,0,48-5.2,60.5-15.5
	c12.5-10.3,18.7-25.7,18.7-46c0-20.7-6.7-35.5-20.2-44.5c-13.5-9-33.8-13.5-61-13.5h-39.5L4755.8,258.6L4755.8,258.6z"/>
<path class="st1" d="M5312.3,454h-69.2l-114.7-165.4l-35.2,28.7V454h-59.7V88.7h59.7v174.4c16.3-20,32.6-39.2,48.7-57.7l98.7-116.7
	h68c-63.8,75-109.5,128.4-137.2,160.2L5312.3,454z"/>
<path class="st1" d="M5573.6,308.1v145.9h-59.7V88.7h103.2c47.1,0,82,8.8,104.7,26.5c22.7,17.7,34,44.3,34,80
	c0,45.5-23.7,77.9-71,97.2L5788,454.1h-68l-87.4-146H5573.6L5573.6,308.1z M5573.6,258.6h41.5c27.8,0,48-5.2,60.5-15.5
	c12.5-10.3,18.7-25.7,18.7-46c0-20.7-6.7-35.5-20.2-44.5c-13.5-9-33.8-13.5-61-13.5h-39.5L5573.6,258.6L5573.6,258.6z"/>
<path class="st1" d="M6090.1,315.3c0,45.1-11.6,80.4-34.7,105.7s-55.4,38-96.7,38c-25.8,0-48.6-5.8-68.5-17.5
	c-19.8-11.7-35.1-28.4-45.7-50.2c-10.7-21.8-16-47.2-16-76c0-44.8,11.5-79.8,34.5-105c23-25.2,55.4-37.8,97.2-37.7
	c40,0,71.7,12.9,95,38.6C6078.5,236.9,6090.2,271.7,6090.1,315.3z M5889,315.3c0,63.8,23.6,95.7,70.7,95.7c46.7,0,70-31.9,70-95.7
	c0-63.1-23.5-94.7-70.5-94.7c-24.7,0-42.5,8.2-53.6,24.5C5894.6,261.4,5889,284.9,5889,315.3L5889,315.3z"/>
<path class="st1" d="M6340.8,454l-11.7-38.5h-2c-13.3,16.8-26.7,28.3-40.2,34.4s-30.8,9.1-52,9.1c-27.2,0-48.4-7.3-63.6-22
	c-15.2-14.7-22.9-35.4-22.9-62.2c0-28.5,10.6-50,31.7-64.5c21.2-14.5,53.4-22.4,96.7-23.7l47.7-1.5v-14.7c0-17.7-4.1-30.9-12.4-39.6
	c-8.2-8.8-21-13.1-38.4-13.1c-13.8,0-27.6,2.1-40.7,6.2c-12.8,4.1-25.3,9-37.5,14.7l-19-42c15.6-8,32.1-14,49.2-17.9
	c16.5-3.9,33.5-6,50.5-6.1c35.1,0,61.7,7.7,79.6,23c17.9,15.3,26.9,39.4,26.9,72.2V454L6340.8,454L6340.8,454z M6253.3,414
	c21.3,0,38.5-6,51.4-17.9c12.9-11.9,19.4-28.6,19.4-50.1v-24l-35.5,1.5c-27.7,1-47.8,5.6-60.4,13.9c-12.6,8.2-18.9,20.9-18.9,37.9
	c0,12.3,3.7,21.9,11,28.6C6227.6,410.6,6238.6,414,6253.3,414L6253.3,414z"/>
<path class="st1" d="M6568.1,459c-34.5,0-61.4-12.5-80.7-37.5c-19.3-25-29-60.1-29-105.2c0-45.3,9.8-80.6,29.4-105.8
	c19.6-25.2,46.7-37.8,81.3-37.9c36.3,0,64,13.4,83,40.2h3c-2.8-19.8-4.2-35.5-4.2-47V65.2h59V454h-46l-10.2-36.2h-2.8
	C6632,445.3,6604.4,459,6568.1,459z M6583.9,411.5c24.2,0,41.7-6.8,52.7-20.4s16.7-35.6,17-66.1v-8.2c0-34.8-5.7-59.5-17-74.2
	c-11.3-14.7-29.1-22-53.2-22c-20.7,0-36.6,8.4-47.7,25.1s-16.7,40.6-16.7,71.6c0,30.7,5.4,54,16.2,70.1
	C6546,403.5,6562.2,411.5,6583.9,411.5L6583.9,411.5z"/>
<path class="st1" d="M7050.1,411.5c14.6,0,29.1-2.3,43-6.8V449c-6.5,2.8-14.9,5.2-25.1,7.1c-10.5,1.9-21.2,2.9-31.9,2.9
	c-55.6,0-83.5-29.3-83.5-88V222.1h-37.8v-26l40.5-21.5l20-58.5h36.2v61.5h78.7v44.5h-78.7v147.9c0,14.2,3.5,24.6,10.6,31.4
	C7029.4,408.2,7038.6,411.5,7050.1,411.5z"/>
<path class="st1" d="M7403.7,315.3c0,45.1-11.6,80.4-34.7,105.7s-55.4,38-96.7,38c-25.8,0-48.6-5.8-68.5-17.5
	c-19.8-11.7-35.1-28.4-45.7-50.2c-10.7-21.8-16-47.2-16-76c0-44.8,11.5-79.8,34.5-105c23-25.2,55.4-37.8,97.2-37.7
	c40,0,71.7,12.9,95,38.6S7403.7,271.7,7403.7,315.3z M7202.6,315.3c0,63.8,23.6,95.7,70.7,95.7c46.7,0,70-31.9,70-95.7
	c0-63.1-23.5-94.7-70.5-94.7c-24.7,0-42.5,8.2-53.6,24.5C7208.1,261.4,7202.6,284.9,7202.6,315.3L7202.6,315.3z"/>
<path class="st1" d="M7841.5,354.8c0,32.5-11.7,58-35.2,76.5c-23.5,18.5-55.9,27.7-97.2,27.7c-41.3,0-75.2-6.4-101.5-19.2v-56.5
	c17,8,34.8,14.2,53.1,18.5c18.7,4.5,36.2,6.8,52.4,6.8c23.7,0,41.1-4.5,52.4-13.5c11.2-9,16.9-21.1,16.9-36.2
	c0-13.7-5.2-25.2-15.5-34.7c-10.3-9.5-31.7-20.7-64-33.7c-33.3-13.5-56.8-28.9-70.5-46.2c-13.6-17.3-20.5-38.1-20.5-62.5
	c0-30.5,10.8-54.5,32.5-72s50.7-26.3,87.2-26.2c35,0,69.8,7.7,104.5,23l-19,48.7c-32.5-13.7-61.5-20.5-87-20.5
	c-19.3,0-34,4.2-44,12.6c-10,8.4-15,19.5-15,33.4c0,9.5,2,17.6,6,24.4c4,6.7,10.6,13.1,19.7,19.1s25.7,13.9,49.5,23.7
	c26.8,11.2,46.5,21.6,59,31.2c12.5,9.7,21.7,20.6,27.5,32.7C7838.5,324,7841.5,338.4,7841.5,354.8z"/>
<path class="st1" d="M8111.1,454l-8.2-36.2h-3c-8.2,12.8-19.8,22.9-34.9,30.2c-15.1,7.3-32.3,11-51.6,11c-33.5,0-58.5-8.3-75-25
	c-16.5-16.7-24.8-41.9-24.7-75.7V177.6h59.3v170.4c0,21.2,4.3,37,13,47.6s22.2,15.9,40.7,15.9c24.7,0,42.8-7.4,54.4-22.1
	s17.4-39.4,17.4-74.1V177.6h59V454H8111.1L8111.1,454z"/>
<path class="st1" d="M8362.7,459c-41.8,0-73.6-12.2-95.3-36.6s-32.6-59.4-32.6-105.1c0-46.5,11.4-82.2,34.1-107.2
	c22.7-25,55.6-37.5,98.6-37.5c29.2,0,55.4,5.4,78.7,16.2l-17.7,47.2c-24.8-9.7-45.3-14.5-61.5-14.5c-47.8,0-71.7,31.7-71.7,95.2
	c0,31,6,54.3,17.9,69.8c11.9,15.6,29.4,23.4,52.4,23.4c26,0,51.6-6.7,74.2-19.5v51.2c-10.4,6.1-21.8,10.6-33.6,13.2
	C8394.2,457.7,8379.7,459,8362.7,459z"/>
<path class="st1" d="M8626.3,459c-41.8,0-73.6-12.2-95.3-36.6c-21.7-24.4-32.6-59.4-32.6-105.1c0-46.5,11.4-82.2,34.1-107.2
	c22.7-25,55.6-37.5,98.6-37.5c29.2,0,55.4,5.4,78.7,16.2l-17.7,47.2c-24.8-9.7-45.3-14.5-61.5-14.5c-47.8,0-71.7,31.7-71.7,95.2
	c0,31,6,54.3,17.9,69.8c11.9,15.6,29.4,23.4,52.4,23.4c26,0,51.6-6.7,74.2-19.5v51.2c-10.4,6.1-21.8,10.6-33.6,13.2
	C8657.8,457.7,8643.3,459,8626.3,459z"/>
<path class="st1" d="M8899.2,459c-43,0-76.6-12.5-100.8-37.6s-36.4-59.6-36.4-103.6c0-45.1,11.2-80.6,33.7-106.5
	c22.5-25.8,53.4-38.7,92.7-38.7c36.5,0,65.3,11.1,86.5,33.2c21.2,22.2,31.7,52.6,31.7,91.5v31.8h-184.2c0.8,26.8,8.1,47.4,21.7,61.8
	c13.7,14.4,32.9,21.6,57.7,21.6c15.3,0.1,30.6-1.4,45.6-4.6c15.6-3.6,30.8-8.7,45.3-15.4v47.7c-13.8,6.7-28.4,11.5-43.5,14.5
	C8934.8,457.6,8918,459,8899.2,459z M8888.5,217.1c-18.7,0-33.6,5.9-44.9,17.7c-11.2,11.8-17.9,29.1-20.1,51.7h125.5
	c-0.3-22.8-5.8-40.1-16.5-51.8S8907.1,217.1,8888.5,217.1z"/>
<path class="st1" d="M9269.3,375.3c0,27-9.8,47.7-29.5,62.1c-19.7,14.4-47.8,21.6-84.5,21.6c-36.8,0-66.4-5.6-88.7-16.7v-50.7
	c32.5,15,62.7,22.5,90.7,22.5c36.1,0,54.2-10.9,54.2-32.7c0-7-2-12.8-6-17.5c-4-4.7-10.6-9.5-19.7-14.5c-9.2-5-21.9-10.7-38.2-17
	c-31.8-12.3-53.3-24.7-64.6-37s-16.9-28.3-16.9-48c0-23.7,9.5-42,28.6-55.1c19.1-13.1,45-19.6,77.8-19.6
	c31.8-0.1,63.3,6.6,92.2,19.7l-19,44.2c-29.8-12.3-54.9-18.5-75.2-18.5c-31,0-46.5,8.8-46.5,26.5c0,8.7,4,16,12.1,22
	s25.7,14.2,52.9,24.7c22.8,8.8,39.4,16.9,49.7,24.2s18,15.8,23,25.4C9266.8,350.5,9269.3,362,9269.3,375.3z"/>
<path class="st1" d="M9528.6,375.3c0,27-9.8,47.7-29.5,62.1c-19.7,14.4-47.8,21.6-84.5,21.6c-36.8,0-66.4-5.6-88.7-16.7v-50.7
	c32.5,15,62.7,22.5,90.7,22.5c36.1,0,54.2-10.9,54.2-32.7c0-7-2-12.8-6-17.5c-4-4.7-10.6-9.5-19.7-14.5c-9.2-5-21.9-10.7-38.2-17
	c-31.8-12.3-53.3-24.7-64.6-37c-11.2-12.3-16.9-28.3-16.9-48c0-23.7,9.5-42,28.6-55.1c19.1-13.1,45-19.6,77.8-19.6
	c31.8-0.1,63.3,6.6,92.2,19.7l-19,44.2c-29.8-12.3-54.9-18.4-75.2-18.4c-31,0-46.5,8.8-46.5,26.5c0,8.7,4,16,12.1,22
	c8.1,6,25.7,14.2,52.9,24.7c22.8,8.8,39.4,16.9,49.7,24.2c10.3,7.3,18,15.8,23,25.4C9526.1,350.5,9528.6,362,9528.6,375.3z"/>
<path class="st1" d="M3924.2-3.5c1.8,1.8,4.7,1.9,6.5,0.1c1.2-1.1,1.7-2.7,1.3-4.3c-1.5-7-3.5-14.5-5.8-16.8
	c-4.7-4.7-20.7-2.7-13.3,7.7C3916.4-12,3920.2-7.6,3924.2-3.5z"/>
<path class="st1" d="M3544.1-26.9c1.3,0,2.6-0.3,3.7-0.8l34.3-15.7c4.5-2.1,6.5-7.4,4.4-11.9c-0.4-0.8-0.9-1.6-1.5-2.3
	c-1.1-1.2-27.3-29.1-89.5-29.1h-2c-5,0.1-9,4.1-8.9,9.1c0,2.6,1.2,5.1,3.3,6.8l50.5,41.8C3539.9-27.6,3542-26.9,3544.1-26.9z
	 M3560.8-53.4l-15.3,7l-24.7-20.4C3539.5-63.9,3552.6-58.2,3560.8-53.4L3560.8-53.4z"/>
<path class="st1" d="M3704.8,6.9c0.9,0.1,1.8,0.1,2.7,0.1c28.1,0,50.9-27,51.9-28.2c2.5-3,2.8-7.3,0.7-10.6
	c-0.9-1.3-21.4-32.9-50.7-34.7s-53.6,26.9-54.6,28.1c-2.5,3-2.8,7.3-0.7,10.6C3654.9-26.5,3675.5,5.1,3704.8,6.9z M3708.3-48.6
	c14.1,0.9,26.3,13.4,32.4,20.9c-7,6.7-20.7,17.5-34.8,16.6c-14.1-0.9-26.3-13.4-32.4-20.9C3680.5-38.6,3694.2-49.4,3708.3-48.6
	L3708.3-48.6z"/>
<path class="st1" d="M3484.4,30.4c1.1,0,2.3-0.2,3.3-0.6c9.8-3.7,20.2-5.7,30.7-5.8c5.2,0.1,9.6-4.1,9.7-9.3
	c0.1-5.2-4.1-9.6-9.3-9.7c-6.6,0.1-13.2,0.7-19.6,2c-6.2,1.2-12.2,2.9-18.1,5.1c-4.9,1.9-7.3,7.4-5.4,12.3
	C3477.1,28,3480.6,30.4,3484.4,30.4z"/>
<path class="st1" d="M3486.8,987.8l-3.2,0.3c-9,0.8-18.1,1.3-27.2,1.5s-18.3,0-27.5-0.5c-4-0.2-8.1-0.5-12.1-0.9
	c-5.2-0.4-9.8,3.6-10.1,8.8c-0.4,5.1,3.4,9.5,8.4,10.1c4.2,0.4,8.5,0.7,12.7,0.9c7.4,0.4,14.8,0.6,22.1,0.6c2.3,0,4.6,0,6.8-0.1
	c9.5-0.2,19.1-0.7,28.6-1.6l3.3-0.3c5.2-0.5,9-5.2,8.5-10.4C3496.7,991,3492,987.2,3486.8,987.8z"/>
<path class="st1" d="M3347.6,976.1l-3.8-1c-11-2.9-22-6.2-32.7-9.9c-10.2-3.5-20.3-7.5-30-11.7c-4.8-2.1-10.4,0.1-12.5,4.9
	s0.1,10.4,4.9,12.5c10.2,4.4,20.8,8.6,31.4,12.2c11.2,3.8,22.6,7.3,34.1,10.3l3.9,1c5.2,0.9,10.1-2.5,11-7.7
	C3354.9,982.2,3352.1,977.6,3347.6,976.1z"/>
<path class="st1" d="M3124.7,817.8c-6.2-10.6-11.8-21.5-16.8-32.7c-4.3-9.7-8.3-19.6-11.7-29.7c-1.7-5-7.1-7.6-12.1-5.9
	c-5,1.7-7.6,7.1-5.9,12.1c3.6,10.6,7.8,21.2,12.3,31.3c5.3,11.8,11.2,23.4,17.8,34.5l0.6,1.1c1.7,2.9,4.8,4.7,8.2,4.7
	c1.7,0,3.4-0.5,4.8-1.3c4.5-2.7,6-8.5,3.4-13L3124.7,817.8z"/>
<path class="st1" d="M3834.7,527.9c-2-9.3-4.4-18.6-7.1-27.6c-3.7-12.2-8.2-24.1-13.3-35.7c-1-2.2-2-4.5-3-6.7
	c-2.1-4.8-7.7-7-12.5-4.9c-4.8,2.1-7,7.7-4.9,12.5c0,0.1,0.1,0.2,0.2,0.3c1,2.1,1.9,4.2,2.8,6.3c4.8,11,9,22.2,12.5,33.7
	c2.6,8.5,4.8,17.2,6.7,26c1.3,5.1,6.4,8.2,11.5,6.9C3832.5,537.6,3835.6,532.9,3834.7,527.9z"/>
<path class="st1" d="M3435.6,98.2c0-2.6,0.1-5.2,0.4-7.7c0.8-6.5,2.5-12.8,5.1-18.8c2-4.8-0.2-10.4-5.1-12.4
	c-4.7-2-10.1,0.1-12.3,4.7c-3.4,7.7-5.7,15.9-6.6,24.3c-0.4,3.3-0.6,6.6-0.6,9.9c0,13.6,3.1,28.1,9.2,43c2,4.9,7.5,7.2,12.4,5.2
	c4.9-2,7.2-7.5,5.2-12.4l0,0C3438.2,121.4,3435.6,109.3,3435.6,98.2z"/>
<path class="st1" d="M3079.9,687.1c-0.3-2.2-0.7-4.5-1-6.7c-1.7-11.6-3.1-24.1-4.2-37.1c-0.8-8.5-1.4-17.5-1.8-26.7
	c-0.3-5.2-4.7-9.3-10-9c0,0,0,0,0,0c-5.2,0.3-9.3,4.7-9,10c0,0,0,0,0,0c0.5,9.4,1.1,18.6,1.9,27.4c1.2,13.3,2.6,26.2,4.4,38.1
	c0.3,2.3,0.7,4.6,1,6.9c0.7,4.6,4.7,8,9.4,8c0.5,0,1,0,1.5-0.1C3077.1,697.2,3080.7,692.3,3079.9,687.1
	C3079.9,687.1,3079.9,687.1,3079.9,687.1z"/>
<path class="st1" d="M3219.8,919.9l-1.5-1c-9.6-6.6-18.8-13.7-27.7-21.4c-8.3-7.2-16.2-14.8-23.8-22.9c-3.6-3.8-9.6-4-13.4-0.5
	c0,0,0,0,0,0c-3.8,3.6-4,9.6-0.5,13.4c0,0,0,0,0,0c16.4,17.6,34.7,33.3,54.5,46.9l1.5,1.1c4.5,2.8,10.3,1.4,13.1-3.1
	C3224.8,928.3,3223.8,922.8,3219.8,919.9z"/>
<path class="st1" d="M3772.8,814.9c4.5,2.7,10.3,1.3,13-3.2c2.9-4.7,5.7-9.6,8.3-14.4c5.8-10.5,11.1-21.5,15.8-32.6
	c2.7-6.4,5.3-12.9,7.7-19.4c1.8-4.9-0.7-10.4-5.6-12.2c-4.9-1.8-10.4,0.7-12.2,5.6c0,0,0,0,0,0c-2.3,6.2-4.7,12.4-7.3,18.5
	c-4.5,10.5-9.5,21-15,30.9c-2.5,4.6-5.2,9.2-7.9,13.7C3766.8,806.4,3768.3,812.2,3772.8,814.9
	C3772.8,814.9,3772.8,814.9,3772.8,814.9z"/>
<path class="st1" d="M3748.9,362.3c-6.8-8.2-14.1-16.3-21.7-24.1c-3.7-3.8-9.7-3.9-13.4-0.2c-3.8,3.7-3.9,9.7-0.2,13.4
	c7.2,7.5,14.2,15.2,20.8,23c8.4,10,16.5,20.5,24.1,31.2c2.8,4.4,8.7,5.7,13.1,2.9c4.4-2.8,5.7-8.7,2.9-13.1
	c-0.2-0.3-0.4-0.5-0.6-0.8C3766,383.6,3757.6,372.7,3748.9,362.3z"/>
<path class="st1" d="M3619.3,946.4c-3.7,2.1-7.5,4.2-11.3,6.1c-14.6,7.6-29.8,14-45.4,19.2c-2.4,0.8-4.9,1.6-7.3,2.3
	c-5,1.5-7.9,6.7-6.5,11.8c1.5,5,6.7,7.9,11.8,6.5c0.1,0,0.2-0.1,0.3-0.1c2.6-0.8,5.2-1.6,7.7-2.5c16.5-5.5,32.6-12.3,48.1-20.3
	c3.9-2,7.9-4.2,11.9-6.4c4.5-2.7,6-8.5,3.3-13C3629.3,945.6,3623.8,944.1,3619.3,946.4z"/>
<path class="st1" d="M3741.2,857.3c-3.9-3.5-9.9-3.2-13.4,0.8c-3.7,4.1-7.6,8.3-11.5,12.4c-8,8.2-16.3,16.3-24.8,23.8
	c-4.7,4.2-9.6,8.4-14.5,12.4c-3.9,3.5-4.2,9.5-0.7,13.4c3.3,3.6,8.8,4.2,12.7,1.3c5.1-4.2,10.2-8.5,15.1-12.9
	c8.8-7.9,17.5-16.2,25.8-24.8c4.1-4.3,8.2-8.6,12-12.9C3745.5,866.8,3745.2,860.8,3741.2,857.3
	C3741.3,857.3,3741.3,857.3,3741.2,857.3z"/>
<path class="st1" d="M3545.3,218.4l-3-1.3c-11.9-4.9-22-9.6-31-14.3c-9.5-4.9-18.6-10.6-27.2-17c-4.2-3.2-10.2-2.3-13.3,1.9
	c-3.2,4.2-2.3,10.2,1.9,13.3c9.4,7,19.3,13.2,29.7,18.6c9.5,5,20.2,10,32.6,15.1l3,1.2c4.8,2.1,10.4,0,12.5-4.8
	c2.1-4.8,0-10.4-4.8-12.5C3545.6,218.5,3545.5,218.4,3545.3,218.4z"/>
<path class="st1" d="M3672.3,289.9c-10.6-8.1-21.8-15.9-33.3-23.4c-4.8-3.1-9.6-6.1-14.6-9c-0.3-0.4-0.6-0.7-0.9-1l-12.7-12
	c-1.8-1.7-4.1-2.6-6.6-2.5c-2.4,0.1-4.7,1.2-6.3,3l-3.4,3.8c-3.3,3.7-3,9.4,0.7,12.7c0.6,0.5,1.2,0.9,1.9,1.3l1.7,0.9
	c0.8,1.1,1.9,2,3.1,2.7c9.2,5.1,18.2,10.5,26.8,16.1c11.1,7.2,21.9,14.8,32.1,22.5c4.2,3.2,10.2,2.4,13.3-1.8
	C3677.3,299,3676.5,293,3672.3,289.9z"/>
<path class="st1" d="M4103.4,579.6l-59.9-21.1c-2.3-6.1-8.5-9.9-15-9.2l-70.9,6.9c-27.1,2.6-53.9,7.1-80.4,13.3
	c-5-42.5-16.5-83.9-33.8-123l43.1-66.2l23.8,7.3L3941,456c3,6.5,10.4,9.8,17.2,7.5l31,19c4.2,2.6,9.8,1.3,12.4-3
	c1.6-2.6,1.8-5.8,0.5-8.5l-15.8-33.6c0.6-3,0.1-6.2-1.3-8.9l-24-46.5l49.8,21.3c3.2,1.4,6.8,1.5,10.1,0.3l40.4,14.8
	c4.7,1.7,9.8-0.7,11.5-5.4c1.1-3,0.5-6.3-1.5-8.8l-25.6-31.5c1.2-6.6-2.4-13.1-8.6-15.5l-53.2-20.9l42.5-8.7c5-1,9.1-4.8,10.5-9.7
	l44.1-18c4.6-1.9,6.8-7.1,5-11.7c-1.2-2.9-3.9-5-7-5.5l-41-6.2c-3.1-5.9-9.9-8.7-16.3-6.8l-33.5,10l32.6-22.4
	c4.8-3.3,7.1-9.2,5.6-14.9l26.8-34.2c3.1-3.9,2.4-9.6-1.5-12.6c-2.5-2-5.8-2.5-8.8-1.3l-41.4,16.1c-4.6-2.3-10.1-1.8-14.3,1.2
	l-51.2,36.9c-50.2,36.1-93.8,80.5-128.9,131.3c-27.1-40.9-60.5-77.2-99-107.5c-25.1-19.5-51.7-37-79.6-52.3
	c-20.1-11.1-41.6-21.7-64.8-31.9c-2.7-1.2-5.3-2.3-8-3.5c-11.2-4.9-22.5-9.8-32.8-15.5c-22.8-12.6-41.1-29-43.8-57.4
	c-2.4-25.7,23.3-44.6,49.5-48.1h0.1c15.4-2.3,31.7-0.3,42.4,5c3.6,1.8,7.2,5.3,11,9.7c1.7,2.5,3.6,4.9,5.7,7.1
	c1.4,1.9,2.9,3.8,4.4,5.8c9,12.1,19.2,25.8,33,34.2c4.6,3,9.6,5.9,14.9,8.8l0,0h0l0.6,0.3c7.7,3.5,15.6,6.4,23.7,8.7
	c23.9,6.8,48.7,9.5,73.5,8.2c26.4-1.4,52.8-6.1,78.3-10.6c34.7-6.1,67.5-12,100.9-10.5c0.9,0.8,1.9,1.5,3,2.1
	c3.5,2,8.4,3.2,15.2,1.8c16.4-3.3,38.2-21,40.1-37c1-8-2.7-14.8-10-18.9c-0.5-0.3-1-0.5-1.5-0.8c-4.5-2.1-9.3-3.4-14.2-3.8
	c-3.1-0.3-6.2-1.3-8.9-2.8c-3.5-1.9-6.4-4.6-8.5-8l-0.4-0.7c-1.3-2-3-3.7-5.1-4.9c-2.1-1.2-4.5-1.9-7-2c-5.3-0.3-10.4,2-13.6,6.1
	l-10.7,13.9l-8.8-11.4c-1.1-1.4-2.5-2.6-4-3.5c-7.3-4.3-16.7-2.2-21.5,4.8l-8.2,12.5l-1.2,0.1l-14.7-14.1c-0.8-0.8-1.7-1.5-2.7-2.1
	c-7.4-4.3-16.8-2.1-21.6,5l-8.7,13.7l-1.2,0.1l-13.2-13.3c-1.1-1.1-2.4-2-3.8-2.7c-2.4-1.2-5-1.8-7.7-1.7c-4.5,0.1-8.7,2-11.7,5.4
	l-13.2,14.9l-4.9,0.2l-11.4-10.9c-1.1-1.1-2.4-1.9-3.8-2.6c-6.5-3.1-14.3-1.6-19.1,3.7l-8.1,9.1c-2.3-1.9-3.8-4.6-4.2-7.6
	c-1.3-6.9,1.2-14.9,5.9-19.6c3-2.9,6.5-5.3,10.3-7l17.1,16.8c0.8,0.8,1.8,1.6,2.8,2.2c7.2,4.4,16.7,2.2,21.1-5.1c0,0,0,0,0,0
	l11.2-18.5l17.4,17.2c0.8,0.8,1.8,1.6,2.8,2.2c7.2,4.4,16.7,2.1,21.1-5.1c0.1-0.1,0.1-0.2,0.2-0.3l11-19l10.9,14.7
	c5,6.8,14.7,8.3,21.5,3.2c1.6-1.2,3-2.7,4-4.4l12.2-20.3l10.2,13.3c1.2,1.6,2.8,3,4.5,4c7.3,4.3,16.7,1.8,21-5.6
	c0.3-0.5,0.5-1,0.8-1.5l6.7-15.2l12,13.7c5.6,6.4,15.3,7,21.7,1.4c2-1.8,3.6-4.1,4.4-6.7c0.1-0.4,0.3-0.9,0.3-1.4l6.8-40.8
	c2.1-11.1-1.7-23.7-9.8-32.1c-3.5-3.6-7.5-6.7-11.8-9.1c-9.3-5.3-19.8-8.1-28.1-10.2c-77.1-20.2-152.7-38.7-230.1-43.8
	c-11.1-0.7-22.5-1.2-33.8-1.2h-0.2v4.8v-4.8h-0.1l0,0c-8.4,0-16.9,0.1-25.3,0.4h-0.9c-1.8,0.1-3.7,0.2-5.5,0.3h-0.3h-0.3l-1.9,0.1
	h-0.2c-2.8,0.2-5.6,0.3-8.5,0.5h-0.5c-2.5,0.2-5,0.4-7.5,0.6l-1.4,0.1c-2,0.2-4,0.4-6,0.6c-4.1-1.3-8.4-2.6-12.7-3.8h-0.2l-3.6-1
	l-0.8-0.2l-3.2-0.8l-1-0.3l-3-0.7l-1.3-0.3l-2.9-0.7l-1.4-0.3l-2.9-0.6l-1.6-0.3l-2.9-0.6l-1.6-0.3l-3-0.6l-1.7-0.3l-3-0.5l-1.8-0.3
	l-3.1-0.5l-1.8-0.3l-3.2-0.5l-1.8-0.3l-3.5-0.5l-1.7-0.2l-3.9-0.5l-1.4-0.2c-3.6-0.4-7.3-0.8-11-1.2l-1.4-0.1l-4.2-0.4l-2.4-0.2
	l-3.4-0.2l-1.8-0.1h-0.6l-3.6-0.2l-2.5-0.1h-0.1l-3.5-0.2l-2.7-0.1l-3.5-0.1l-2.8-0.1l-3.6-0.1l-2.9-0.1l-3.6,0h-3h-6.7h-3.8h-0.4
	h-2.6l-3.9,0.1h-0.4l-2.7,0.1l-3.4,0.1l-1.6,0.1l-2,0.1l-4,0.2l-1.3,0.1l-2,0.1l-4.6,0.3l-2.8,0.2c-2.4,0.2-4.9,0.3-7.4,0.5h-0.1
	c-4.8,0.3-9.1,3.1-11.3,7.4c-1,1.9-1.6,4-1.7,6.2c0,0.2,0,0.3,0,0.5c0,3.7,1.4,7.2,4,9.8l0,0c0.2,0.2,0.4,0.4,0.7,0.6l0.5,0.4
	c0.1,0.1,0.3,0.3,0.4,0.4l39.3,29.9c-5.7,2.7-11.9,5.7-17.1,8.2l-0.6,0.3L3315-32.9c-4.9,0.9-8.1,5.6-7.3,10.5
	c0,0.2,0.1,0.5,0.2,0.7l14.2,53c-4.8,6.2-9.4,12.5-13.7,19l-80,84c-3.4,3.6-3.3,9.3,0.3,12.7c0.2,0.1,0.3,0.3,0.5,0.4l30.7,25.7
	c-0.3,1.7-0.5,3.4-0.8,5.1c-17.6-6.6-34.6-14.9-50.7-24.6c-23.5-14.1-45.4-30.5-65.6-49.1c-3.2-3.1-8.2-3.4-11.7-0.7
	c-3.5,2.7-4.6,7.6-2.5,11.5c6.5,12.1,7.8,26.3,3.7,39.4v0.1c0,0.1-0.1,0.2-0.1,0.3c-0.1,0.3-0.2,0.7-0.3,1c0,0.1,0,0.1,0,0.2
	c-10.3,52.5-71,96.5-86.1,106.7c-3.2,1-5.8,3.3-7,6.5l-0.1,0.1l-0.1,0.3c0,0.1-0.1,0.2-0.1,0.3s-0.1,0.3-0.1,0.4
	c0,0.1-0.1,0.3-0.1,0.5s0,0.2-0.1,0.2c-0.1,0.1,0,0.1,0,0.1c0,0.2,0,0.4-0.1,0.6s0,0.2,0,0.3s0,0.4,0,0.7s0,0.2,0,0.3s0,0.5,0.1,0.7
	c0,0.1,0,0.2,0,0.2c0,0.2,0.1,0.5,0.2,0.8c0,0,0,0.1,0,0.2c0.1,0.3,0.2,0.6,0.3,0.9l0.1,0.2c0.1,0.2,0.2,0.5,0.3,0.7
	c0.1,0.2,0.1,0.2,0.2,0.3c0,0.1,0.2,0.3,0.3,0.5l0.2,0.3c0.1,0.2,0.2,0.3,0.3,0.5l0.1,0.1c27.3,34.9,36.4,75.4,27.2,120.3
	c-7,34.1-22.6,58.2-22.7,58.5l-0.1,0.2c-0.1,0.2-0.2,0.4-0.3,0.6l-0.2,0.3l-0.1,0.2c-0.1,0.2-0.1,0.3-0.2,0.4s-0.1,0.2-0.1,0.3
	c-0.1,0.3-0.2,0.6-0.3,0.9l0,0c-0.1,0.3-0.1,0.7-0.2,1c0,0,0,0.1,0,0.1c0,0.3,0,0.6,0,0.8c0,0.1,0,0.2,0,0.3s0,0.5,0,0.7
	s0,0.2,0,0.3s0.1,0.5,0.1,0.7c0,0.2,0,0.2,0.1,0.3c0.1,0.3,0.2,0.6,0.3,0.9v0l0,0c0.1,0.3,0.3,0.6,0.4,0.9l0.1,0.2
	c0.1,0.2,0.2,0.4,0.4,0.6l0.2,0.3c0.1,0.2,0.3,0.4,0.4,0.6l0.2,0.2c0.2,0.2,0.4,0.4,0.6,0.6l0.1,0.1c0.5,0.4,1,0.8,1.6,1.2l0.3,0.1
	c0.2,0.1,0.3,0.2,0.5,0.2l0.2,0.1h0.1l0.5,0.2c0.8,0.3,1.7,0.6,2.6,0.8c53,15.7,88,48.1,103.9,96.3c12.2,37.1,8.1,70.2,8.1,70.5l0,0
	c0,0.3-0.1,0.7-0.1,1c0,0,0,0.1,0,0.2c0,0.3,0,0.5,0,0.8s0,0.2,0,0.3s0.1,0.4,0.1,0.6s0,0.2,0.1,0.3s0.1,0.4,0.1,0.6l0.1,0.3
	c0.1,0.2,0.1,0.4,0.2,0.6l0.1,0.3c0.1,0.2,0.2,0.4,0.3,0.6l0.1,0.2c0.1,0.2,0.3,0.4,0.4,0.6l0.1,0.2c0.4,0.5,0.8,1,1.3,1.4l0,0
	l0.2,0.2c0.2,0.2,0.4,0.3,0.5,0.4l0.3,0.2l0.5,0.3l0.3,0.1l0.6,0.3l0.2,0.1c0.3,0.1,0.6,0.2,0.8,0.3l0,0c0.3,0.1,0.6,0.1,0.9,0.2
	h0.3l0.6,0.1h0.6h0.3h0.4c51.5-3.5,99,9.4,141.2,38.2c31.7,21.6,48.3,44.6,48.5,44.8c0.2,0.2,0.2,0.3,0.4,0.4
	c0.1,0.1,0.2,0.2,0.3,0.4c0.2,0.3,0.5,0.5,0.8,0.8c0.1,0.1,0.3,0.2,0.4,0.3c0.1,0.1,0.4,0.3,0.6,0.4s0.4,0.2,0.5,0.3l0.5,0.2
	c0.2,0.1,0.4,0.2,0.6,0.3l0.4,0.1c0.2,0.1,0.5,0.2,0.8,0.2h0.2c4.8,1.1,9.7-1.9,10.8-6.8c0.1-0.6,0.2-1.2,0.2-1.8
	c3.6-45.1,18.4-78.6,44.1-99.7c12-9.6,26-16.6,40.9-20.4c6.4,27.5,5.3,56.3-3.2,83.3l-65.4,48.5c-4,3-4.8,8.6-1.9,12.6
	c0.1,0.1,0.2,0.3,0.3,0.4l15.1,18c-7,6.1-14.5,11.7-22.4,16.7l-102.2-11.2c-4.9-0.6-9.4,3-10,7.9c0,0.2,0,0.4,0,0.6l-1.4,27.8
	c-12.8-1.6-25.4-4.6-37.5-8.9l-37.7-56.3c-2.8-4.1-8.4-5.2-12.5-2.5c-0.1,0.1-0.3,0.2-0.4,0.3l-19.9,15
	c-33.8-32.4-54.5-75.3-56.9-118.8c0-0.5-0.1-2.1-0.1-4.2c-0.2-6.4-0.6-18.2-1.2-27.7c-0.1-0.7,0.2-1.4,0.8-1.9
	c0.5-0.5,1.3-0.8,2-0.7l27.7,2.8c3.6,0.4,7.1-1.5,8.8-4.6c1.7-3.2,1.4-7.1-0.9-9.9l-75-94.5c-0.8-1.1-1.9-1.9-3.1-2.5
	c-1.2-0.6-2.6-0.9-4-0.9l0,0c-2.8,0-5.4,1.3-7.1,3.5l-76,96.9c-2.3,2.9-2.6,6.8-0.8,10c0.8,1.4,1.9,2.5,3.2,3.3
	c1.7,1.1,3.7,1.5,5.7,1.3l29.6-3.4c0.4,0,0.7-0.1,1.1-0.2c0.6-0.1,1.1-0.1,1.7,0.2c0.2,0.1,0.3,0.2,0.5,0.3c0.8,0.6,1.2,1.5,1.2,2.5
	c0,199.6,101.5,306.8,186.6,361.6c8.8,5.7,17.9,11.1,27.1,16.1c64.6,35.4,138.3,55.3,210.7,56.5h1c1.8,0,3.6,0,5.4,0h0.7
	c2,0,3.9,0,5.8,0h0.3c33.6-0.4,66.9-5,99.3-13.7c40.7-11,79.4-28.3,114.8-51.1c35.4-22.7,67.5-50.3,95.2-82
	c27.9-31.6,51.2-66.9,69.4-105c3.5-7.4,6.9-14.9,10-22.5c0.7,1.1,1.4,2,2.3,2.9c2.1,2,4.8,3.3,7.6,3.8l19.7,36.6
	c2.4,4.4,7.8,6,12.2,3.7c2.7-1.4,4.4-4.1,4.7-7.1l3.7-42.1c2.2-2.5,3.5-5.7,3.7-9l3.1-62.3l38.5,51.6c2.7,3.6,6.8,5.7,11.2,5.9
	l35.8,35.3c3.5,3.5,9.2,3.4,12.7-0.1c2.2-2.3,3.1-5.5,2.3-8.6l-11.6-43.6c1-1.4,1.7-2.9,2.1-4.6c1.2-4.4,0.2-9.2-2.7-12.8
	l-42.5-53.6l50.1,16.8c5.5,1.8,11.5,0.2,15.4-4l54.8,4.4c5,0.4,9.3-3.2,9.7-8.2c0.3-3.2-1.1-6.2-3.7-8.1l-37.3-26.7
	c0.1-6.8-4.6-12.8-11.2-14.4l-45.6-10.9l51.9-3.9c4-0.3,7.7-2.2,10.2-5.3c0.5-0.6,1-1.3,1.4-2l54.6-6.2c4.9-0.5,8.5-5,8-9.9
	C4109.1,583.6,4106.7,580.7,4103.4,579.6z M3808.8,589.8c-3.4-58.2-21.9-114.5-53.6-163.3c-36-55.6-88.1-104.5-146.7-137.6
	c-19.1-10.8-39.3-20.1-58.9-29c-29.8-13.6-60.6-27.7-87-47.3c-32.8-24.2-54.7-59.7-60.1-97.3c-5.6-38.4,7.8-76.2,37.5-106.6
	c13.9-14.2,30.2-25.9,47.9-34.7c0.5-0.3,1-0.5,1.4-0.9c6.2-4.7,7.4-13.5,2.7-19.7c-0.8-1-1.7-1.9-2.7-2.7l-22.6-17.2l-0.1-0.1
	l-42.8-32.6c76.7-4.5,129,6.5,159.8,16.8h0.2c28.2,9.4,41.4,19.2,41.5,19.3c3.9,3,9.6,2.3,12.6-1.7c2.4-3.2,2.5-7.5,0.2-10.7
	l-6.6-9.2c4.7-0.1,9.5-0.1,14.2-0.1h0.2v-4.6v4.6h0l0,0c10.9,0.1,22,0.5,32.7,1.2c75.9,5,150.6,23.4,226.8,43.3
	c7.2,1.9,15.7,4.1,22.8,7.9c3.2,1.7,6,3.8,8.5,6.3c4.1,4.3,6.2,11,5.1,16.5v0.2l-5.7,34.3l-11-12.5c-5.6-6.4-15.3-7-21.7-1.4
	c-1.7,1.5-3,3.3-3.9,5.4l-6.5,14.8l-9.8-12.8c-5.1-6.7-14.8-8.1-21.5-2.9c-1.5,1.2-2.8,2.6-3.8,4.3l-12.2,20.2l-10.9-14.7
	c-5-6.8-14.7-8.3-21.5-3.2c-1.7,1.2-3.1,2.8-4.2,4.6l-11.3,19.6L3780.2,29c-0.8-0.8-1.8-1.6-2.8-2.2c-7.2-4.4-16.7-2.2-21.1,5
	c0,0,0,0,0,0.1l-11.2,18.5l-18.9-18.5c-2.5-2.4-6.1-3.2-9.3-2.1c-9.1,3.2-16.3,7.5-22.1,13.2c-9,8.9-13.3,22.9-10.9,35.7
	c1.8,9.5,7.1,17.1,14.9,21.2c0.5,0.3,1.1,0.5,1.6,0.8c2,0.9,4,1.5,6.1,2c3.2,0.7,6.5-0.4,8.6-2.8l10.9-12.3l12.4,11.9
	c0.5,0.4,0.9,0.8,1.5,1.2c1.5,1,3.4,1.5,5.2,1.4l12.6-0.5c2.4-0.1,4.7-1.2,6.4-3l14.3-16.2l6.2,6.3c7.6,7.7,9,9.1,10.3,9.8
	c0.3,0.2,0.6,0.3,0.9,0.4c1.2,0.5,2.5,0.7,3.8,0.6l9.7-0.5c2.3-0.1,4.5-1.1,6.1-2.8c0.6-0.7,1.2-1.4,1.7-2.2l9.2-14.5l15.2,14.8
	c0.7,0.7,1.5,1.2,2.3,1.6c0.3,0.1,0.6,0.3,0.9,0.4h0.1c1.2,0.4,2.4,0.6,3.6,0.6l9.5-0.5c2.3-0.1,4.4-1.1,6-2.7
	c0.7-0.7,1.2-1.4,1.8-2.2l8.5-12.9l8.7,11.2c1.2,1.5,2.6,2.8,4.3,3.7l0,0l0,0c1.5,0.8,3.2,1.2,4.9,1.2l7.5-0.4
	c1.6-0.1,3.2-0.6,4.5-1.5c1.4-0.9,2.6-2.1,3.6-3.4l10.5-13.7c3.4,4.6,7.7,8.5,12.7,11.4c5.1,2.9,10.7,4.7,16.5,5.3
	c2.9,0.3,5.8,1,8.5,2.2l0.5,0.3c0.3,0.2,0.6,0.4,0.8,0.6c0.1,1.3-2,6.7-9.8,13.2c-8.3,6.9-16.3,9.4-18.7,8.9
	c-1.6-2.5-4.2-4.1-7.2-4.3c-36.9-2.2-73.5,4.3-108.9,10.5c-25,4.4-50.8,9-76.1,10.4c-22.8,1.3-45.6-1.2-67.5-7.5
	c-7.2-2.1-14.2-4.6-21-7.7l-0.8-0.5c-4.5-2.5-8.8-5-12.7-7.5l-0.2-0.2c-10.8-6.5-19.5-18.2-27.9-29.5c-3.4-4.6-6.8-9.1-10.2-13.2
	c-3.4-5.4-5.5-11.5-6.2-17.8c0-0.2,0-0.4,0-0.7l-2.6-23.7c-0.6-4.9-5-8.5-9.9-7.9c-4.9,0.6-8.5,5-7.9,9.9l2.5,22.3
	c-13.3-4.7-29.9-6.2-46-3.8c-34.6,4.6-68.4,31.2-65,67.6c2.2,23.3,12.7,42.2,32.2,57.8c7.2,5.7,14.9,10.6,23.1,14.9
	c10.5,5.6,21.4,10.4,32.2,15.1c2.7,1.2,5.3,2.3,7.9,3.5c20.8,9.2,40.4,18.7,58.6,28.6c28.7,15.4,56.1,33.2,81.9,53.2
	c90.5,70.9,150.9,177.8,162.7,287.2C3842.3,578.4,3825.4,583.7,3808.8,589.8L3808.8,589.8z M3946.3,263.3l48.5-34.9
	c2.4,1.6,5.5,1.9,8.2,0.9l15.8-6.1l-10.1,13c-2,2.5-2.5,5.8-1.3,8.8l-76.7,52.7c-4.1,2.9-5,8.5-2.2,12.5c2.2,3.1,6.2,4.5,9.8,3.5
	l84-25.1c1.3,2.7,3.8,4.7,6.8,5.1l14.7,2.2l-18.6,7.6c-3.1,1.2-5.2,4.1-5.6,7.4l-69.2,14.2c-4.9,1-8,5.8-7,10.6
	c0.6,3,2.7,5.4,5.5,6.6l77.3,30.3c-0.5,2.6,0.2,5.3,1.9,7.4l8.4,10.4l-13.6-5c-2.4-0.9-5.1-0.7-7.4,0.5l-70.7-30.2
	c-4.6-2-9.9,0.2-11.8,4.7c-1.1,2.5-1,5.3,0.3,7.7l34.6,67c-0.7,2.2-0.6,4.6,0.4,6.7l4.6,9.8l-10-6.1c-2.2-1.4-4.9-1.7-7.4-0.9
	l-29.7-66c-1.6-3.7-4.8-6.4-8.6-7.6l-32-9.9c-3.8-1.2-8,0.3-10.2,3.7l-40.7,62.6c-3.1-6.2-6.4-12.4-9.8-18.5
	c-2.3-4.1-4.6-8.1-7.1-12.1C3852.1,344.8,3895.7,299.7,3946.3,263.3L3946.3,263.3z M3144.2,177.9l0.3,0.3l0.8,0.8l1.2,1.2l0.8,0.8
	l1.2,1.2l0.8,0.8l1.2,1.2l0.9,0.8l1.3,1.2l0.8,0.8l1.4,1.3l0.7,0.6c0.7,0.6,1.3,1.2,2,1.8l0.2,0.2c0.7,0.7,1.5,1.3,2.3,1.9l0.7,0.6
	l1.6,1.3l0.9,0.7l1.4,1.1l1,0.7l1.4,1.1l1,0.8l1.4,1l1,0.7l1.5,1l1,0.7l1.6,1.1l0.9,0.6l1.9,1.2l0.7,0.4l2.6,1.7l0.6,0.4l2,1.2
	l1,0.6l1.7,1l1.1,0.6l1.6,0.9l1.1,0.7l1.6,0.9l1.1,0.6l1.6,0.9l1.1,0.6l1.6,0.9l1.1,0.6l1.8,1l0.9,0.5l2.5,1.3l0.2,0.1l2.7,1.4
	l0.9,0.4l1.8,0.9l1.1,0.5l1.7,0.8l1.1,0.5l1.6,0.8l1.1,0.5l1.6,0.7l1.1,0.5l1.6,0.7l1.1,0.5l1.7,0.8l1,0.5l1.9,0.9l0.7,0.3l2.6,1.2
	l0.7,0.3l1.9,0.8l1,0.4l1.6,0.7l1.1,0.5l1.5,0.6l1.1,0.5l1.4,0.6l1.1,0.4l1.4,0.6l1,0.4l1.5,0.6l1,0.4l1.6,0.6l0.8,0.3l2.1,0.8
	l0.3,0.1l2.2,0.8l0.8,0.3l1.4,0.5l0.9,0.3l1.3,0.5l0.9,0.3l1.3,0.5l0.9,0.3l1.2,0.4l0.9,0.3l1.2,0.4l0.9,0.3l1.2,0.4l0.8,0.3
	l1.4,0.5l0.5,0.2l1.8,0.6l0.6,0.2l1.2,0.4l0.7,0.2l1.1,0.3l0.7,0.2l0.9,0.3l0.7,0.2l0.9,0.3l0.7,0.2l0.8,0.3l0.6,0.2l0.9,0.3
	l0.5,0.2l0.9,0.3l0.4,0.1l1.2,0.4c0.1,0.4,0.3,0.9,0.4,1.3c0.1,0.3,0.2,0.6,0.4,0.9c0.1,0.3,0.1,0.3,0.2,0.5
	c0.1,0.2,0.3,0.6,0.4,0.9l0.2,0.4c0.1,0.3,0.3,0.6,0.5,0.9l0.2,0.4c0.2,0.4,0.4,0.7,0.7,1.1l0.1,0.2c0.2,0.4,0.5,0.7,0.7,1.1
	l0.1,0.2c0.3,0.4,0.5,0.8,0.8,1.2v0c2.5,3.3,5.4,6.3,8.6,8.9c0.2,7.9,6.1,16.1,12.1,21.8c-0.2,0.2-0.3,0.4-0.4,0.6l-0.1,0.2
	c-0.1,0.2-0.3,0.4-0.4,0.7l-0.1,0.1c-2.4,4.6-3.6,12.2,3.8,23.5l-13-1.8c-11.3-1.5-24-3.3-38.1-5.3c-10.7-1.5-22-3.3-33.6-5.4
	c-11.6-2.1-23.5-4.4-35.2-6.9c-11.5-2.5-23.2-5.2-34.8-8c-11-2.7-22-5.6-32.6-8.5c-21.8-6-41.1-11.5-51.4-14.4
	C3093.7,249.3,3129.2,217.3,3144.2,177.9L3144.2,177.9z M3065.5,283.7l0.9,0.2c10.4,3,29.8,8.5,51.7,14.5c10.7,2.9,21.9,5.8,33,8.6
	c11.8,2.9,23.7,5.7,35.4,8.2c11.9,2.5,24,4.9,35.8,7c11.8,2.1,23.4,4,34.3,5.5c14.1,2,26.9,3.7,38.2,5.3l16,2.2l1.6,0.2l1.4,0.2
	c-1.8,9.8,5.8,19.4,14.6,26.5c-6.8,2.6-15.8,5.8-26.9,9.8c-3,1.1-5.3,1.9-6.4,2.3c-2.6,1-7.6,2.9-14.6,5.6
	c-23.4,9-70.3,27.2-115.6,43.2l-0.9,0.3l-9.1,3.2l-2.6,0.9l-1.1,0.4l-0.5,0.2l-6.6,2.3l-0.6,0.2c-42.2,14.4-64.4,20.2-76,22.3
	c7.8-15.8,13.6-32.5,17.2-49.7C3093.6,359.9,3086.9,319,3065.5,283.7L3065.5,283.7z M3088.4,466.3l0.2-0.1l2.3-0.6
	c10.5-2.8,23.3-6.7,38-11.5l0.2-0.1l3.8-1.2l0.7-0.2l2.8-0.9l1.9-0.6l1.6-0.5l3.2-1.1l0.4-0.1c4.7-1.6,9.6-3.3,14.6-5
	c49.2-17,103-37.8,128.8-47.8c6.9-2.7,11.9-4.6,14.4-5.5c1.1-0.4,3.3-1.2,6.2-2.2l8.8-3.1c0.5,2.4,1.4,4.7,2.6,6.8
	c6.8,12.5,22.6,21.4,23.9,22.2l0.1,0c2.9,1.5,5.9,2.8,9.1,3.8l-169.9,196.1c-0.8-17.6-3.9-35-9.2-51.8
	C3162.4,531,3139.5,491.1,3088.4,466.3L3088.4,466.3z M3324.9,672c-39-26.9-85.1-41.5-132.4-42.2l182.6-210.7l0.5-0.2
	c0.4-0.1,0.8-0.3,1.2-0.4c0.2,0.9,0.4,1.8,0.7,2.6l0.1,0.2c0.2,0.8,0.5,1.5,0.8,2.3l0.2,0.6c0.2,0.6,0.5,1.1,0.7,1.7
	c0.2,0.4,0.3,0.8,0.5,1.1c0.2,0.4,0.3,0.7,0.5,1c0.2,0.3,0.4,0.8,0.6,1.1l0.2,0.4c0.5,0.8,1,1.7,1.5,2.4l0.2,0.2
	c1.1,1.5,2.2,3,3.5,4.3c-4.7,14.6-10.8,47.4-18.4,125.5c-5.7,58.7-9.8,118.3-10.7,136.4C3347.2,688.8,3336.4,679.9,3324.9,672
	L3324.9,672z M3411.9,612.6c-14.4,11.8-25.9,26.7-33.8,43.6c1.8-24.7,4.3-56.2,7.3-87.6c7.5-78.8,13.5-110.3,16.9-122.8h0.2
	c0.8,0.2,1.5,0.4,2.3,0.6c1.1,0.2,2.2,0.4,3.2,0.6c0.7,0.1,1.4,0.2,2.1,0.3l1,0.1c0.9,0.1,1.8,0.2,2.7,0.2h0.2
	c5.6,0.4,11.3-0.2,16.7-1.8h0.1c0.8-0.2,1.5-0.5,2.2-0.7l0.4-0.2c0.6-0.2,1.2-0.5,1.8-0.7l0.8-0.3c0.4-0.2,0.9-0.4,1.3-0.6
	s0.8-0.4,1.2-0.6l0.8-0.5c0.5-0.3,1-0.6,1.4-0.9l0.4-0.2c1.9-1.2,3.7-2.6,5.4-4.2l49.2,146.9
	C3476.9,583.9,3441.9,588.1,3411.9,612.6L3411.9,612.6z M3803.6,669.7l15.7-7.9c-0.5,3.1-1,6.3-1.5,9.3c-1,5.2,2.4,10.1,7.5,11.1
	c5.2,1,10.1-2.4,11.1-7.5c0-0.1,0-0.2,0.1-0.4c0.9-5.1,1.7-10.3,2.4-15.4l2.4,1.8l13.7,14.8l-1.9,18
	c-32.3,150.4-152.4,279.9-298.8,319.2c-31,8.3-62.9,12.6-94.9,13.1h-0.3c-1.9,0-3.7,0-5.6,0h-0.7c-1.7,0-3.5,0-5.2,0h-0.9
	c-69.4-1.1-140.2-20.2-202.2-54.2c-8.9-4.9-17.5-10-26-15.5c-81.4-52.4-178.4-155.1-178.4-346.5c0-6.5-2.9-12.6-8-16.7
	c-0.9-0.7-1.9-1.3-2.9-1.9c-4.3-2.4-9.3-3.1-14.1-2.1l-7.6,0.9l44.7-57c0,4.1,0,8.2,0,12.3c0,5.2,4.3,9.5,9.5,9.5l0,0
	c5.2,0,9.5-4.3,9.5-9.5l0,0c0-5.1,0-10.1,0-15.2c0-0.2,0-0.4,0-0.7l46.4,58.5l-6.5-0.7c-6-0.6-12,1.5-16.3,5.7
	c-4.3,4.2-6.6,10.1-6.2,16.1c0.6,9.1,0.9,20.8,1.1,27c0.1,2.4,0.1,4.1,0.2,4.7c0.2,3.4,0.5,7,0.9,10.5c-0.1,0.6-0.1,1.3,0,1.9
	c4.9,39.2,13.5,75.4,25.6,107.7c14.1,37.6,32.9,69.9,56.1,96.1c31,35.1,70.4,63,117.2,83c44.5,18.8,92,29.2,140.3,30.7
	c97.5,3,193.1-32.5,262.2-97.3c26.4-24.9,48.9-53.5,66.8-85c17.9-31.4,31.6-65,40.5-100C3800.9,682.1,3802.4,675.9,3803.6,669.7
	L3803.6,669.7z M4038.6,586c-3.8,0.4-6.8,3.2-7.7,6.8l-106.1,8.1c-5,0.4-8.7,4.7-8.3,9.6c0.3,3.9,3.1,7.2,6.9,8.1l97.4,23.4
	c-0.5,3.4,0.9,6.8,3.7,8.7l16.1,11.5l-27.4-2.2c-3.2-0.3-6.4,1.2-8.2,3.9l-0.3,0.5l-76.4-25.6c-4.7-1.6-9.8,1-11.4,5.7
	c-1,2.9-0.4,6.1,1.5,8.5l59.1,74.5c-2,2.3-2.7,5.3-1.9,8.2l4.5,17.1l-15.6-15.3c-2-2-4.8-2.9-7.6-2.5l-52-69.8
	c-3-4-8.6-4.8-12.6-1.8c-2.2,1.6-3.5,4.1-3.6,6.8l-4.2,85.5c-2,1.5-3.2,3.8-3.4,6.3l-1.4,16l-8.1-15c-1.4-2.6-4-4.4-7-4.7l6.3-61.2
	c1.8-8.2,3.3-16.5,4.5-24.8c0.6-3.7-1.3-7.4-4.6-9.2c-3-3.8-7.6-8.1-14.2-13.2c-1.1-0.8-2.1-1.6-3.1-2.4l-9.9-10.7
	c-2.7-3-7.1-3.7-10.7-1.9L3681.9,711l-108-249.2c-2-4.6-7.3-6.7-11.8-4.7c-4.6,2-6.7,7.3-4.7,11.8l0,0l111.8,257.9
	c2,4.6,7.3,6.7,11.8,4.7c0.2-0.1,0.3-0.1,0.5-0.2l101.3-51.2c-0.3,1.2-0.6,2.4-0.9,3.5c-17.6,68.5-53.9,131.1-102.2,176.4
	c-65.6,61.5-156.5,95.2-249.3,92.4c-96.2-2.9-187.5-43.1-244.4-107.5c-23-26-41.5-59-55.1-97.5c8.2,10.6,17.4,20.5,27.4,29.4
	c3.2,2.8,8,3,11.4,0.4l18.2-13.8l34,50.8c1.1,1.6,2.6,2.8,4.4,3.4c17.5,6.5,35.8,10.4,54.3,11.8c5,0.4,9.3-3.4,9.6-8.3
	c0-0.1,0-0.1,0-0.2l1.4-27.7l95.8,10.5c2,0.2,3.9-0.2,5.6-1.2c12.4-7.5,23.9-16.3,34.4-26.3c3.4-3.3,3.7-8.6,0.7-12.3l-14.5-17.3
	l60-44.6c1.5-1.1,2.6-2.6,3.2-4.4c10.3-30.6,11.9-63.5,4.7-95c8.5-1.1,17.1-1.4,25.7-0.6c4.9,0.6,9.4-2.9,10.1-7.8
	c0.2-1.3,0-2.7-0.4-4l-47-140.3c2.8,1.8,6,2.9,9.2,3.3c0.8,0.1,1.5,0.1,2.3,0.1c6.4,0,14.9-3,22.8-15.6
	c14.3-22.9,10.7-41.3,5.2-52.8c-3.7-7.6-9.1-14.2-15.8-19.4c-4.1-2.8-9.7-1.8-12.5,2.3c-2.8,4-1.9,9.5,2.1,12.4
	c2.5,1.8,24.1,18.8,5.8,47.9c-2.9,4.6-5.9,7.4-7.8,7.2c-6.6-0.7-17.5-19-23.1-34.9c-1.7-4.7-6.8-7.1-11.5-5.5
	c-4,1.4-6.5,5.5-5.9,9.7c0.5,3.9,0,7.8-1.5,11.4l-0.1,0.2c-0.1,0.3-0.2,0.6-0.4,0.8l-0.2,0.4c-0.1,0.3-0.3,0.6-0.4,0.8l-0.3,0.5
	l-0.3,0.5l-0.3,0.5l-0.4,0.7l-0.2,0.3c-0.2,0.3-0.5,0.6-0.7,0.9l-0.1,0.2c-0.2,0.3-0.5,0.6-0.7,0.8l0,0c-0.3,0.3-0.6,0.6-0.9,0.9
	c-5.5,5.2-13.6,7-23.7,5.4l-1-0.2c-0.7-3.1-3.1-5.6-6.2-6.5c-1.8-0.5-3.8-0.6-5.6-0.1c-0.2-0.3-0.4-0.6-0.6-0.9
	c-3.1-5-3.9-11.8-3.7-18c0-0.3,0-0.6,0-0.9v-0.1c0-0.3,0-0.6,0.1-0.9c1.6-4.6,2.3-9.4,2-14.2c-0.2-5-4.4-8.8-9.4-8.6
	c-3.9,0.2-7.3,2.9-8.3,6.6c-1,3.9-1.7,8-2.1,12v0.1c-0.4,0.8-0.9,1.5-1.5,2.1l0,0c-0.3,0.3-0.6,0.6-1,0.9h-0.1
	c-0.4,0.3-0.8,0.6-1.2,0.8c-0.3,0.2-0.6,0.3-0.8,0.4c-1.6-0.1-3.3,0.3-4.7,1.1c-4.8,0.3-10.2-1.2-14.6-3.5l-0.5-0.2
	c-1.5-0.8-2.9-1.7-4.3-2.6c-0.5-0.3-1-0.7-1.5-1.1c-5.4-4-10.4-9.2-11.5-12.6c-0.1-0.3-0.2-0.6-0.2-0.9c0-0.2-0.1-0.5,0.8-1.3
	c2.4-2,6.7-4.1,11.8-5.6c1.3-0.4,2.6-0.8,4-1.1l1.4-0.3c4.9-1,7.9-5.8,6.9-10.7c0-0.1-0.1-0.3-0.1-0.4c0,0,0-0.1,0-0.1s0,0,0,0
	c0-0.7-0.1-1.4-0.3-2.1c-1.1-4.8-6-7.8-10.8-6.7l-0.2,0.1c-5.6-3.2-11-7.8-13.8-11.3c-0.3-0.4-0.6-0.7-0.8-1c-0.4-0.6-0.8-1.2-1-1.8
	c1.6-1,3.4-1.8,5.2-2.2c1.3-0.4,2.5-1,3.6-1.9l0.1-0.1c0.3-0.3,0.6-0.5,0.8-0.8c0.1-0.1,0.1-0.2,0.2-0.3c0.2-0.3,0.4-0.5,0.6-0.8
	c0.1-0.1,0.1-0.3,0.2-0.4c0.2-0.3,0.3-0.5,0.4-0.8c0.1-0.2,0.1-0.3,0.2-0.5c0.1-0.2,0.2-0.5,0.3-0.8c0.1-0.3,0.1-0.4,0.1-0.6
	s0.1-0.5,0.1-0.8l0,0l0,0c0-0.2,0-0.4,0-0.6s0-0.5,0-0.7s-0.1-0.4-0.1-0.7s0-0.5-0.1-0.7s-0.1-0.5-0.2-0.7s-0.1-0.4-0.2-0.6
	c-0.1-0.2-0.2-0.5-0.3-0.7c-0.1-0.2-0.2-0.4-0.2-0.5c-0.1-0.2-0.3-0.4-0.4-0.7c-0.1-0.2-0.2-0.3-0.3-0.5c-0.1-0.2-0.4-0.4-0.5-0.6
	s-0.2-0.3-0.4-0.4c-0.1-0.1-0.4-0.4-0.6-0.5s-0.3-0.2-0.4-0.3c-0.1-0.1-0.5-0.3-0.7-0.5s-0.3-0.2-0.4-0.3l0,0l-0.4-0.2
	c-0.4-0.2-0.8-0.5-1.2-0.7l-0.2-0.2c-0.3-0.2-0.7-0.5-1-0.7l-0.4-0.3c-0.3-0.2-0.6-0.4-0.9-0.7s-0.6-0.5-0.8-0.7l-0.4-0.3
	c-0.3-0.3-0.7-0.6-1-0.9l-0.2-0.2c-0.8-0.8-1.6-1.6-2.4-2.5l0,0c-0.4-0.4-0.7-0.8-1.1-1.2l-0.1-0.1c-0.7-0.8-1.4-1.7-2-2.5l-0.1-0.1
	c-1.6-2-2.9-4.3-3.8-6.7c0.4-0.1,0.8-0.2,1.3-0.3c2.1-0.3,4.3-0.4,6.5-0.3c2.4,0.1,4.7-0.7,6.4-2.2c0.1-0.1,0.3-0.2,0.4-0.4
	c1.8-1.8,2.8-4.3,2.6-6.9V292v-0.7c-0.3-5-4.6-8.7-9.5-8.5c-0.7,0-1.4,0.2-2.1,0.4c-1.2,0.4-2.4,0.2-3.5-0.3l0,0
	c-2.6-1.4-6.3-5.1-8.8-8.4c-1-1.2-1.8-2.6-2.4-4c2.6-4.2,1.3-9.8-3-12.4c-0.8-0.5-1.6-0.8-2.5-1.1c-0.2,0-0.3-0.1-0.5-0.2
	c-2.2-1.4-4.2-3.3-5.8-5.3c-0.5-0.7-1-1.3-1.4-1.9c-0.4-0.5-0.7-1.1-0.9-1.7c1.3-4.8-1.4-9.8-6.2-11.1c0,0,0,0-0.1,0l-0.8-0.2h-0.1
	h-0.1c-9.4-2.7-86.5-25.6-126.7-62.5l-0.1-0.1c-0.7-0.7-1.4-1.3-2.1-2l-0.4-0.3c-0.6-0.6-1.2-1.2-1.8-1.8l-0.6-0.6
	c-0.5-0.5-1-1.1-1.5-1.6l-0.7-0.7c-0.4-0.5-0.9-1-1.3-1.5l-0.8-0.9c-0.4-0.5-0.8-0.9-1.1-1.3l-0.8-1c-0.3-0.4-0.7-0.8-1-1.3
	l-0.8-1.1c-0.3-0.4-0.6-0.8-0.9-1.2l-0.8-1.1l-0.5-0.8c1.6-6.5,2.3-13.2,2.1-19.9c14.7,11.7,30.1,22.5,46.2,32.2
	c21.8,13.1,43.2,23,64,29.7c0.7,0.3,1.5,0.6,2.2,0.7c20.7,6.5,40.7,9.8,59.6,9.8c5.6,0,11.2-0.3,16.7-0.9c2.7,12.6,8.6,37.9,17,65.3
	c16.1,52.6,33.5,86.1,51.5,99.7c0.2,0.2,0.5,0.4,0.8,0.5c0.7,0.4,17.8,10.5,35.1,2.1c14.9-7.3,24.2-25.5,27.6-54.2
	c0.5-4.9-3.1-9.4-8.1-9.8c-4.8-0.5-9.1,2.9-9.8,7.7c-2.6,21.5-8.8,35.8-17.5,40.1c-7.5,3.8-16-0.2-17.7-1.1
	c-30.1-23.4-55.6-124.8-62.9-162c-0.9-4.8-5.5-8-10.3-7.2c-23.8,4-47.9,1.1-70.4-5.3c0.6-4.3,1.2-8.6,2-12.8
	c0.6-3.2-0.6-6.5-3.1-8.5l-27.5-22.7l73.9-77.6c0.4-0.4,0.7-0.8,1-1.2c5-7.5,10.4-14.9,16-22c1.8-2.2,2.4-5.2,1.7-8l-12.8-47.9
	l102.8-18.6c0.8-0.1,1.6-0.4,2.3-0.8l1.7-0.8c4.7-2.3,17.3-8.4,25.4-12.1l13.5,10.3c-17.1,9.3-32.7,21-46.4,34.9
	c-33.7,34.5-48.8,77.7-42.4,121.8c6.1,42.4,30.6,82.2,67.2,109.2c27.9,20.6,59.6,35.1,90.2,49.1c19.2,8.8,39.1,17.9,57.5,28.3
	c56.1,31.8,106,78.5,140.5,131.7c31.1,47.9,48.7,103.3,51,160.3c-25.2,10.1-49.6,21.8-73.2,35.1l-64-140.8
	c-2.1-4.5-7.4-6.5-11.9-4.5c-4.5,2.1-6.5,7.4-4.5,11.9l0,0l68.1,149.8c2.1,4.5,7.4,6.5,11.9,4.5c0.3-0.1,0.5-0.3,0.8-0.4l2.9-1.7
	c26.1-15,53.3-28.1,81.3-39c0.7-0.2,1.4-0.4,2-0.8c21.5-8.3,43.5-15.3,65.9-21c0.7-0.1,1.4-0.3,2.1-0.5c28.5-7.1,57.6-12.2,86.9-15
	l67.7-6.6c0.7,2.9,2.9,5.3,5.7,6.3l27.8,9.8L4038.6,586z"/>
<g>
	<path d="M4478.7,672.5c0,18.8-6.4,33.3-19.2,43.3c-12.8,10-30.9,15.1-54.4,15.1H4375v80.5h-13.6V616.5h47.7
		C4455.6,616.5,4478.7,635.2,4478.7,672.5z M4375,719.2h26.8c21.9,0,37.8-3.6,47.6-10.9c9.8-7.2,14.7-19,14.7-35.3
		c0-15-4.6-26.1-13.9-33.4c-9.2-7.2-23.6-10.9-42.9-10.9H4375V719.2z"/>
	<path d="M4641,811.4h-106.5V616.5H4641v12.5h-92.9v73.7h87.7v12.5h-87.7v83.6h92.9V811.4z"/>
	<path d="M4712.1,726.5v84.9h-13.6V616.5h46.4c24.2,0,42,4.5,53.6,13.4c11.6,8.9,17.3,22.4,17.3,40.3c0,13.1-3.4,24.1-10.3,33.1
		c-6.9,9-17.4,15.4-31.4,19.3l52.9,88.8h-16.3l-50.3-84.9H4712.1z M4712.1,714.8h37.2c16.4,0,29.2-3.7,38.3-11
		c9.1-7.3,13.6-18.1,13.6-32.5c0-14.8-4.4-25.6-13.3-32.4c-8.9-6.8-23.4-10.1-43.5-10.1h-32.3V714.8z"/>
	<path d="M4887.7,811.4h-13.6V616.5h106.8v12.5h-93.2v82.6h88v12.7h-88V811.4z"/>
	<path d="M5131,811.4h-106.5V616.5H5131v12.5h-92.9v73.7h87.7v12.5h-87.7v83.6h92.9V811.4z"/>
	<path d="M5271.7,626c-24.4,0-43.7,7.8-57.7,23.5c-14,15.6-21.1,37.1-21.1,64.3c0,27.8,6.6,49.4,19.9,64.8
		c13.2,15.4,32.2,23.1,56.8,23.1c16.4,0,31.4-2.1,45.1-6.3v12c-12.9,4.5-29,6.8-48.3,6.8c-27.4,0-48.9-8.8-64.7-26.5
		c-15.7-17.7-23.6-42.4-23.6-74.1c0-19.8,3.8-37.3,11.3-52.4c7.5-15.1,18.3-26.8,32.4-35c14.1-8.2,30.5-12.3,49.1-12.3
		c19,0,36,3.6,51.1,10.7l-5.5,12.3C5302.3,629.5,5287.4,626,5271.7,626z"/>
	<path d="M5422.3,811.4h-13.7V629.3h-63.3v-12.8h140.4v12.8h-63.3V811.4z"/>
	<path d="M5813.8,672.5c0,18.8-6.4,33.3-19.2,43.3c-12.8,10-30.9,15.1-54.4,15.1h-30.1v80.5h-13.6V616.5h47.7
		C5790.6,616.5,5813.8,635.2,5813.8,672.5z M5710.1,719.2h26.8c21.9,0,37.8-3.6,47.6-10.9c9.8-7.2,14.7-19,14.7-35.3
		c0-15-4.6-26.1-13.9-33.4c-9.2-7.2-23.6-10.9-42.9-10.9h-32.3V719.2z"/>
	<path d="M5869.5,811.4V616.5h13.6v194.9H5869.5z"/>
	<path d="M6002.5,811.4h-13.7V629.3h-63.3v-12.8h140.4v12.8h-63.3V811.4z"/>
	<path d="M6191.3,626c-24.4,0-43.7,7.8-57.7,23.5c-14,15.6-21.1,37.1-21.1,64.3c0,27.8,6.6,49.4,19.9,64.8
		c13.2,15.4,32.2,23.1,56.8,23.1c16.4,0,31.4-2.1,45.1-6.3v12c-12.9,4.5-29,6.8-48.3,6.8c-27.4,0-48.9-8.8-64.7-26.5
		c-15.7-17.7-23.6-42.4-23.6-74.1c0-19.8,3.8-37.3,11.3-52.4c7.5-15.1,18.3-26.8,32.4-35c14.1-8.2,30.5-12.3,49.1-12.3
		c19,0,36,3.6,51.1,10.7l-5.5,12.3C6221.9,629.5,6206.9,626,6191.3,626z"/>
	<path d="M6432.2,811.4h-13.7v-95.8h-113.8v95.8H6291V616.5h13.6V703h113.8v-86.5h13.7V811.4z"/>
	<path d="M6775.9,811.4h-106.5V616.5h106.5v12.5H6683v73.7h87.7v12.5H6683v83.6h92.9V811.4z"/>
	<path d="M6981.3,712.1c0,32.7-8.6,57.4-25.7,74.2c-17.2,16.8-42.3,25.1-75.6,25.1h-46.7V616.5h52.7c31.1,0,54.8,8.1,71,24.4
		C6973.2,657.2,6981.3,680.9,6981.3,712.1z M6966.5,712.6c0-27.9-7.1-48.9-21.3-63c-14.2-14.1-35-21.1-62.5-21.1H6847v170.9h32.3
		C6937.4,799.4,6966.5,770.5,6966.5,712.6z"/>
	<path d="M7039.5,811.4V616.5h13.6v194.9H7039.5z"/>
	<path d="M7172.4,811.4h-13.7V629.3h-63.3v-12.8h140.4v12.8h-63.3V811.4z"/>
	<path d="M7278.1,811.4V616.5h13.6v194.9H7278.1z"/>
	<path d="M7524.1,713.7c0,30.9-7.7,55.4-23.2,73.4c-15.5,18-36.8,27-64,27c-27.1,0-48.4-9-63.9-27c-15.5-18-23.2-42.5-23.2-73.6
		c0-31,7.8-55.4,23.4-73.2c15.6-17.8,36.9-26.7,63.9-26.7c27.2,0,48.5,9,63.9,26.9C7516.4,658.2,7524.1,682.7,7524.1,713.7z
		 M7364.6,713.7c0,27.9,6.2,49.5,18.7,64.7c12.4,15.2,30.3,22.9,53.6,22.9c23.5,0,41.4-7.6,53.8-22.7c12.4-15.1,18.6-36.7,18.6-64.9
		c0-28.1-6.2-49.6-18.6-64.6c-12.4-15-30.2-22.5-53.5-22.5c-23.2,0-41.1,7.6-53.7,22.7C7370.9,664.4,7364.6,685.9,7364.6,713.7z"/>
	<path d="M7723.9,811.4h-13.7l-115.4-173h-1.1c1.1,20.6,1.6,36.2,1.6,46.7v126.4h-13.1V616.5h13.6l115.3,172.8h0.8
		c-0.8-16-1.2-31.2-1.2-45.6V616.5h13.2V811.4z"/>
</g>
</svg>
