<?xml version="1.0" encoding="utf-8"?>
<!-- Generator: Adobe Illustrator 19.0.0, SVG Export Plug-In . SVG Version: 6.00 Build 0)  -->
<svg version="1.1" id="Warstwa_1" xmlns="http://www.w3.org/2000/svg" xmlns:xlink="http://www.w3.org/1999/xlink" x="0px" y="0px"
	 viewBox="0 0 450.8 138.4" style="enable-background:new 0 0 450.8 138.4;" xml:space="preserve">
<style type="text/css">
	.st0{fill:#0063AF;}
	.st1{clip-path:url(#SVGID_2_);fill:#FFFFFF;}
</style>
<rect class="st0" width="450.8" height="138.4"/>
<g>
	<defs>
		<rect id="SVGID_1_" width="450.8" height="138.4"/>
	</defs>
	<clipPath id="SVGID_2_">
		<use xlink:href="#SVGID_1_"  style="overflow:visible;"/>
	</clipPath>
	<path class="st1" d="M103.7,33.8L103.7,33.8L103.7,33.8L103.7,33.8L103.7,33.8z M103.7,50.7V33.9c0-0.6,0.5-1,1.1-1
		c5.7,0.3,10.9,0.8,15.4,1.5l0,0c0.4,0.1,0.8,0.3,0.9,0.7h0l0,0c0,0,0,0.1,0,0.1l0,0c0,0.1,0,0.2,0.1,0.4c0.5,3.7,1.1,9.6,1.4,14.9
		c0,0,0.1,1.2-1.1,1.2h-13h-3.7C104.2,51.7,103.7,51.3,103.7,50.7"/>
	<path class="st1" d="M69.1,104.1V86.3v1.1c0-0.6-0.5-1.1-1.1-1.1h-3.7h-13c-1.2,0-1.1,1.2-1.1,1.2c0.3,5.3,0.9,11.2,1.4,14.9
		c0,0.2,0,0.3,0.1,0.4l0,0c0,0,0,0.1,0,0.1l0,0l0,0c0.1,0.4,0.5,0.7,0.9,0.7c4.5,0.6,9.7,1.1,15.4,1.5
		C68.6,105.2,69.1,104.7,69.1,104.1 M69.1,104.1L69.1,104.1L69.1,104.1L69.1,104.1"/>
	<path class="st1" d="M88.6,50.5c0,0,0,1.2,1.2,1.2h8.4c0,0,1.2,0,1.2-1.2v-3.4V33.8c0,0,0-1.2-1.2-1.2c-2.3-0.1-5.9-0.2-8.4-0.2
		c0,0-1.2,0-1.2,1.2v13.9V50.5"/>
	<path class="st1" d="M86.4,104.5V86.6v0.7c0-0.6-0.5-1.1-1.1-1.1h0.7h-0.7H74.7c0,0-1.2,0-1.2,1.2v3.4v13.4c0,0,0,1.2,1.2,1.2
		c2.9,0.1,7.3,0.2,10.6,0.2C85.2,105.7,86.4,105.7,86.4,104.5"/>
	<path class="st1" d="M73.5,50.5c0,0,0,1.2,1.2,1.2h8.4c0,0,1.2,0,1.2-1.2v-17c0,0,0-1.2-1.2-1.2c-2.5,0-6.1,0.1-8.4,0.2
		c0,0-1.2,0-1.2,1.2v13.4V50.5"/>
	<path class="st1" d="M64.6,82H68c0,0,1.2,0,1.2-1.2v-8.4c0,0,0-1.2-1.2-1.2h-17c0,0-1.2,0-1.2,1.2c0,2.5,0.1,6.1,0.2,8.4
		c0,0,0,1.2,1.2,1.2H64.6"/>
	<path class="st1" d="M49.7,65.7c0,0,0,1.2,1.2,1.2h17c0,0,1.2,0,1.2-1.2v-8.4c0,0,0-1.2-1.2-1.2h-3.4H51.2c0,0-1.2,0-1.2,1.2
		C49.8,59.5,49.8,63.1,49.7,65.7"/>
	<path class="st1" d="M69.1,33.8L69.1,33.8L69.1,33.8L69.1,33.8L69.1,33.8z M69.1,50.7V33.9c0-0.6-0.5-1-1.1-1
		c-5.7,0.3-10.9,0.8-15.4,1.5l0,0c-0.4,0.1-0.8,0.3-0.9,0.7h0l0,0c0,0,0,0.1,0,0.1l0,0c0,0.1,0,0.2-0.1,0.4
		c-0.5,3.7-1.1,9.6-1.4,14.9c0,0-0.1,1.2,1.1,1.2h13h3.7C68.7,51.7,69.1,51.3,69.1,50.7"/>
	<path class="st1" d="M103.7,82c0,0,0,1.2,0.8,2c0,0-0.8-0.8,16,16c0,0,0.8,0.8,1-0.3c0.8-6.4,1.4-15.9,1.6-25.2c0,0,0-1.2-1.2-1.2
		h-17.2c0,0-1,0-1,1v1.2v3.2v1.9V82"/>
	<path class="st1" d="M123.1,67.9c0-4.1-0.1-8-0.2-10.7c0,0,0-1.2-1.2-1.2h-16.8c0,0-1.2,0-1.2,1.2v7.4v3.1c0,0,0,1.2,1.2,1.2H122
		C122.6,69,123.1,68.5,123.1,67.9"/>
	<path class="st1" d="M117.4,103.1c-11.6-11.6-15.2-15.2-16.3-16.3c-0.4-0.3-0.8-0.5-1.1-0.5v0h-8.1c0,0-1.2,0-1.2,1.2v17
		c0,0,0,1.2,1.2,1.2c9.3-0.1,18.8-0.8,25.2-1.6C117.1,104.1,118.3,103.9,117.4,103.1"/>
	<path class="st1" d="M376.2,83.2c1.4,4.2,2.7,8.1,4,11.8h7.3c1-2.3,2.1-4.9,3.2-7.8c1.1-2.9,2.2-6.1,3.3-9.4
		c1.1-3.3,2.2-6.8,3.3-10.5c1.1-3.7,2.2-7.4,3.2-11.3h-9.3c-0.5,2.1-1,4.3-1.6,6.8c-0.6,2.4-1.2,4.9-1.9,7.4c-0.7,2.5-1.4,5-2.1,7.4
		c-0.7,2.4-1.4,4.6-2,6.6c-0.7-2.3-1.5-4.7-2.2-7.1c-0.7-2.4-1.4-4.9-2-7.3c-0.6-2.4-1.2-4.8-1.8-7.1c-0.5-2.3-1-4.5-1.5-6.5h-6.9
		c-0.4,2-1,4.2-1.5,6.5c-0.6,2.3-1.2,4.7-1.8,7.1c-0.6,2.4-1.3,4.9-2.1,7.3c-0.7,2.4-1.5,4.8-2.2,7.1c-0.7-2-1.4-4.2-2.1-6.6
		c-0.7-2.4-1.4-4.8-2-7.4c-0.7-2.5-1.3-5-1.9-7.4c-0.6-2.4-1.1-4.7-1.6-6.8h-9.6c1,3.8,2.1,7.6,3.2,11.3c1.1,3.7,2.2,7.2,3.3,10.5
		c1.1,3.3,2.2,6.5,3.3,9.4c1.1,2.9,2.1,5.6,3.1,7.8h7.4c1.3-3.7,2.6-7.6,3.9-11.8c1.3-4.2,2.6-8.4,3.7-12.8
		C373.6,74.8,374.9,79,376.2,83.2 M325.8,34.6l-11,13.1l4.5,4l12.2-11.8L325.8,34.6z M328.7,84.7c-1.7,2.3-4,3.4-7,3.4
		c-3,0-5.3-1.1-7-3.4c-1.7-2.3-2.5-5.4-2.5-9.3c0-3.9,0.8-7,2.5-9.2c1.7-2.3,4-3.4,7-3.4c3,0,5.3,1.1,7,3.4c1.7,2.3,2.5,5.3,2.5,9.2
		C331.2,79.3,330.4,82.4,328.7,84.7 M339.1,67c-0.9-2.5-2.2-4.7-3.8-6.5c-1.6-1.8-3.6-3.2-5.9-4.1c-2.3-1-4.8-1.5-7.6-1.5
		s-5.3,0.5-7.5,1.5c-2.3,1-4.3,2.4-5.9,4.1c-1.7,1.8-3,3.9-3.9,6.5c-0.9,2.5-1.4,5.3-1.4,8.4c0,3.1,0.5,5.9,1.4,8.4
		c0.9,2.5,2.2,4.7,3.8,6.5c1.6,1.8,3.6,3.2,5.9,4.2c2.3,1,4.8,1.5,7.6,1.5c2.8,0,5.3-0.5,7.7-1.5c2.3-1,4.3-2.4,5.9-4.2
		c1.6-1.8,2.9-4,3.8-6.5c0.9-2.5,1.3-5.4,1.3-8.4C340.5,72.3,340,69.5,339.1,67 M276.4,37l-9,1.5V95h9V77c1.3,1,2.7,2.2,4.1,3.6
		c1.4,1.4,2.8,2.9,4.1,4.5c1.3,1.6,2.6,3.2,3.8,4.9c1.2,1.7,2.2,3.3,3.1,4.9h10.5c-0.9-1.7-2-3.5-3.4-5.5c-1.3-2-2.8-4-4.3-6
		c-1.5-2-3.1-3.9-4.8-5.6c-1.6-1.8-3.2-3.3-4.7-4.5c2.8-2.8,5.6-5.8,8.3-8.7c2.8-3,5.4-5.9,7.9-8.7h-10.7c-0.8,0.9-1.8,2.1-2.9,3.3
		c-1.1,1.3-2.3,2.6-3.5,4c-1.2,1.4-2.5,2.7-3.8,4.1c-1.3,1.4-2.5,2.7-3.7,3.8V37z M234.8,55.5c-2.2,0.4-3.9,0.8-5,1.2L231,64
		c1.1-0.4,2.5-0.7,4.3-1c1.7-0.3,3.7-0.4,5.8-0.4c1.5,0,2.8,0.2,3.8,0.6c1,0.4,1.8,1,2.5,1.7c0.6,0.7,1.1,1.6,1.3,2.5
		c0.2,0.9,0.4,1.9,0.4,3v1.5c-1.2-0.3-2.4-0.5-3.5-0.6c-1.1-0.1-2.1-0.2-3.1-0.2c-2.1,0-4.2,0.2-6.2,0.6c-2,0.4-3.7,1.1-5.2,2.1
		c-1.5,1-2.7,2.2-3.5,3.8c-0.9,1.5-1.3,3.4-1.3,5.7c0,2.3,0.4,4.3,1.2,5.9c0.8,1.6,1.8,2.9,3.2,3.9c1.4,1,3,1.7,5,2.2
		c1.9,0.4,4.1,0.7,6.4,0.7c3.5,0,6.7-0.2,9.5-0.6c2.8-0.4,4.9-0.8,6.3-1.1V70.4c0-2.3-0.3-4.4-0.8-6.3c-0.5-1.9-1.4-3.5-2.6-4.9
		c-1.2-1.3-2.9-2.4-4.9-3.1c-2-0.7-4.6-1.1-7.5-1.1C239.4,54.9,237,55.1,234.8,55.5 M237.2,87.4c-1.3-0.8-2-2.3-2-4.4
		c0-1.1,0.2-2,0.7-2.7c0.5-0.7,1.2-1.3,2-1.7c0.8-0.4,1.7-0.7,2.8-0.8c1-0.1,2-0.2,3-0.2c1.1,0,2.2,0.1,3.1,0.2
		c0.9,0.1,1.7,0.3,2.2,0.4v10c-1.4,0.3-3.6,0.4-6.4,0.4C240.3,88.6,238.5,88.2,237.2,87.4 M225,56.4c-0.4-0.1-1-0.3-1.8-0.5
		c-0.7-0.2-1.5-0.3-2.3-0.4c-0.8-0.1-1.6-0.2-2.4-0.3c-0.8-0.1-1.5-0.1-2.1-0.1c-3.2,0-6.1,0.3-8.7,0.9c-2.6,0.6-4.8,1.2-6.5,1.8V95
		h9V63.7c0.4-0.1,1.2-0.3,2.4-0.5c1.1-0.2,2.2-0.3,3.2-0.3c1.7,0,3.3,0.1,4.6,0.4c1.3,0.3,2.4,0.5,3.1,0.8L225,56.4z M198,95
		c-1.6-2.6-3.3-5.2-5.3-7.8c-1.9-2.6-3.9-5.1-6-7.5c-2.1-2.4-4.2-4.7-6.4-6.8c-2.2-2.1-4.3-4-6.4-5.6c1.9-1.8,3.8-3.8,5.8-5.8
		c2-2,3.9-4.1,5.9-6.2c1.9-2.1,3.8-4.1,5.7-6.2c1.8-2,3.6-4,5.2-5.9h-11.3c-1.3,1.4-2.7,3.1-4.3,4.9c-1.6,1.8-3.3,3.6-5,5.6
		c-1.8,1.9-3.5,3.8-5.3,5.7c-1.8,1.9-3.5,3.6-5.2,5.3V43.2h-9.4V95h9.4V71.7c1.9,1.3,3.9,2.9,5.9,4.8c2,1.8,3.9,3.8,5.8,5.8
		s3.6,4.2,5.3,6.3c1.7,2.2,3.2,4.3,4.5,6.3H198z"/>
</g>
</svg>
