<svg id="Warstwa_1" xmlns="http://www.w3.org/2000/svg" viewBox="2978 -204 6552.5 1247.9"><style>.st0{fill:#fed700}.st1{fill:#231f20}</style><title>3</title><path class="st0" d="M3971.5 62.6c-4.4.6-8.4-2.5-9-6.9-.3-2.2.3-4.4 1.7-6.1 4.5-5.7 8.5-11.7 12-18.1 2.9-8.1 9.4-15.2 8.8-24-2.2-69.7 19.9-146 89.8-163 8.4-2.6-2.5 18.2-3.4 29.3.1 5.9 4.1 11.1 9 11.1 10-.8 19.6-3.9 28.2-9.2 6.1-2.9 11.5-7.1 15.6-12.5 12.4-15.7 14.6-39.2-.1-55.5 7.1-5.8 18-1.2 25.5 2.4 2.9 1.7 5.7 3.6 8.2 5.8 5 4.2 9.3 9.2 12.8 14.8 1.7 2.9 3.2 6 4.3 9.1 3.6 9.9 3.6 20.7-.1 30.5-.8 2.5-1.8 5-2.7 7.4-2.9 7.3-6 14.6-7.8 22-.1 2.3.5 4.6 1.6 6.6 1.5 2.4 3.5 4.3 5.8 5.8 2.9.7 5.8.8 8.8.5 2.9.2 5.8.6 8.7 1.2 11.3 2.2 21 7.2 24.7 18.7-7.1.4-14.2 1.7-21 3.8-6.3 2-12.3 5.1-17.7 9-5.3 4-9.9 8.7-13.6 14.1-2.8 5.3-5.5 10.7-8.2 16-23.4 68-97.7 77-159.3 84.2-8.4 1.1-16 2.1-22.6 3z"/><path class="st1" d="M3970.4 71.7c-9.4 0-17-7.6-17-17 0-3.9 1.3-7.6 3.8-10.7 4.1-5.1 7.7-10.5 10.8-16.2 1.2-2.9 2.5-5.8 4.1-8.6 2.2-4.2 4.2-7.9 3.9-11v-.4c-.9-27.9 1.6-68.8 18.7-105.3 16.4-35.1 43.3-58.2 77.8-66.7 3.9-1.3 8.3-.3 11.2 2.6 5.5 5.5 3 13.5-.1 23.6-1.3 4.2-2.8 8.9-3.1 12 .1.7.3 1.3.6 1.8 8.1-.8 15.9-3.5 22.8-7.7.3-.2.6-.3.9-.5 4.8-2.3 9.1-5.7 12.4-9.9 9.2-11.7 12.3-30.5.2-43.8-3.3-3.7-3-9.4.7-12.7l.3-.3c12.1-9.9 28.2-2.1 35.1 1.3l.5.3c3.4 1.9 6.6 4.2 9.6 6.7 5.7 4.8 10.7 10.5 14.7 16.9l.1.1c2 3.4 3.7 7 5.1 10.7 4.3 11.8 4.3 24.8-.1 36.5-.9 2.8-1.9 5.4-2.8 7.6-.5 1.2-.9 2.3-1.3 3.4-2.2 5.3-4.2 10.8-5.8 16.3.1.4.2.8.4 1.2.5.7 1 1.3 1.7 1.8 1.4.2 2.8.2 4.2 0 .6-.1 1.1-.1 1.7 0 3.2.3 6.5.7 9.6 1.3 16.8 3.2 27.4 11.6 31.6 24.8 1.5 4.7-1.1 9.8-5.9 11.3-.7.2-1.4.4-2.1.4-6.4.3-12.7 1.5-18.8 3.4-5.4 1.7-10.6 4.3-15.2 7.7-4.3 3.3-8.1 7.2-11.3 11.6l-5.4 10.5-2.2 4.3c-11.4 32.6-34.4 55.4-70.3 69.7-30.7 12.3-65.5 16.3-96.3 19.9-8.3 1.1-15.9 2.1-22.5 3-.8.1-1.5.1-2.3.1zm1.1-9.1zM3993.9 7c.6 8.3-3.1 15.1-6 20.6-1.2 2.2-2.3 4.5-3.3 6.8-.2.4-.3.9-.6 1.3-3.3 6.2-7.1 12-11.4 17.6l20.1-2.7h.1c58-6.8 130.2-15.2 151.9-78.2.1-.4.3-.8.5-1.2l2.5-4.9c1.9-3.7 3.8-7.5 5.8-11.2.2-.3.3-.6.5-.9 8.7-12.6 21.4-22 36-26.6 2.3-.8 4.7-1.4 7.1-2-3.1-1.5-6.3-2.6-9.7-3.2-2.1-.4-4.4-.7-7-1-3.7.3-7.4.1-11-.8-1-.2-1.9-.7-2.8-1.2-3.5-2.2-6.5-5.2-8.6-8.8l-.1-.1c-1.9-3.4-2.9-7.3-2.8-11.2 0-.6.1-1.3.2-1.9 1.8-6.8 4.1-13.5 6.8-19.9l1.3-3.3c.8-2 1.7-4.5 2.5-7l.1-.3c2.9-7.8 3-16.4.1-24.3-.9-2.6-2.1-5.1-3.5-7.5-3-4.7-6.7-8.9-11-12.5-2.1-1.8-4.3-3.3-6.6-4.7-2.1-1-4-1.8-5.7-2.5 7.6 18.3 2.6 39.2-8.4 53.2-4.9 6.3-11.2 11.3-18.4 14.8-9.6 5.8-20.5 9.3-31.7 10.2h-.9c-9.8-.1-17.7-8.9-17.9-20v-.9c.4-5 2.2-10.8 3.9-16.4l.1-.2c-70.2 26-73 121-72.1 150.9zm83.5-154zM4637.6 454h-69.2l-114.7-165.4-35.2 28.7V454h-59.7V88.7h59.7v174.4c16.3-20 32.6-39.2 48.7-57.7l98.7-116.7h68c-63.8 75-109.5 128.4-137.2 160.2L4637.6 454zM4755.8 308.1V454h-59.7V88.7h103.2c47.1 0 82 8.8 104.7 26.5 22.7 17.7 34 44.3 34 80 0 45.5-23.7 77.9-71 97.2l103.2 161.7h-68l-87.4-146h-59zm0-49.5h41.5c27.8 0 48-5.2 60.5-15.5s18.7-25.7 18.7-46c0-20.7-6.7-35.5-20.2-44.5s-33.8-13.5-61-13.5h-39.5v119.5zM5312.3 454h-69.2l-114.7-165.4-35.2 28.7V454h-59.7V88.7h59.7v174.4c16.3-20 32.6-39.2 48.7-57.7l98.7-116.7h68c-63.8 75-109.5 128.4-137.2 160.2L5312.3 454zM5573.6 308.1V454h-59.7V88.7h103.2c47.1 0 82 8.8 104.7 26.5 22.7 17.7 34 44.3 34 80 0 45.5-23.7 77.9-71 97.2L5788 454.1h-68l-87.4-146h-59zm0-49.5h41.5c27.8 0 48-5.2 60.5-15.5s18.7-25.7 18.7-46c0-20.7-6.7-35.5-20.2-44.5s-33.8-13.5-61-13.5h-39.5v119.5zM6090.1 315.3c0 45.1-11.6 80.4-34.7 105.7s-55.4 38-96.7 38c-25.8 0-48.6-5.8-68.5-17.5-19.8-11.7-35.1-28.4-45.7-50.2-10.7-21.8-16-47.2-16-76 0-44.8 11.5-79.8 34.5-105 23-25.2 55.4-37.8 97.2-37.7 40 0 71.7 12.9 95 38.6 23.3 25.7 35 60.5 34.9 104.1zm-201.1 0c0 63.8 23.6 95.7 70.7 95.7 46.7 0 70-31.9 70-95.7 0-63.1-23.5-94.7-70.5-94.7-24.7 0-42.5 8.2-53.6 24.5-11 16.3-16.6 39.8-16.6 70.2zM6340.8 454l-11.7-38.5h-2c-13.3 16.8-26.7 28.3-40.2 34.4s-30.8 9.1-52 9.1c-27.2 0-48.4-7.3-63.6-22-15.2-14.7-22.9-35.4-22.9-62.2 0-28.5 10.6-50 31.7-64.5 21.2-14.5 53.4-22.4 96.7-23.7l47.7-1.5v-14.7c0-17.7-4.1-30.9-12.4-39.6-8.2-8.8-21-13.1-38.4-13.1-13.8 0-27.6 2.1-40.7 6.2-12.8 4.1-25.3 9-37.5 14.7l-19-42c15.6-8 32.1-14 49.2-17.9 16.5-3.9 33.5-6 50.5-6.1 35.1 0 61.7 7.7 79.6 23 17.9 15.3 26.9 39.4 26.9 72.2V454h-41.9zm-87.5-40c21.3 0 38.5-6 51.4-17.9 12.9-11.9 19.4-28.6 19.4-50.1v-24l-35.5 1.5c-27.7 1-47.8 5.6-60.4 13.9-12.6 8.2-18.9 20.9-18.9 37.9 0 12.3 3.7 21.9 11 28.6 7.3 6.7 18.3 10.1 33 10.1zM6568.1 459c-34.5 0-61.4-12.5-80.7-37.5-19.3-25-29-60.1-29-105.2 0-45.3 9.8-80.6 29.4-105.8 19.6-25.2 46.7-37.8 81.3-37.9 36.3 0 64 13.4 83 40.2h3c-2.8-19.8-4.2-35.5-4.2-47V65.2h59V454h-46l-10.2-36.2h-2.8c-18.9 27.5-46.5 41.2-82.8 41.2zm15.8-47.5c24.2 0 41.7-6.8 52.7-20.4s16.7-35.6 17-66.1v-8.2c0-34.8-5.7-59.5-17-74.2-11.3-14.7-29.1-22-53.2-22-20.7 0-36.6 8.4-47.7 25.1s-16.7 40.6-16.7 71.6c0 30.7 5.4 54 16.2 70.1 10.8 16.1 27 24.1 48.7 24.1zM7050.1 411.5c14.6 0 29.1-2.3 43-6.8V449c-6.5 2.8-14.9 5.2-25.1 7.1-10.5 1.9-21.2 2.9-31.9 2.9-55.6 0-83.5-29.3-83.5-88V222.1h-37.8v-26l40.5-21.5 20-58.5h36.2v61.5h78.7v44.5h-78.7V370c0 14.2 3.5 24.6 10.6 31.4 7.3 6.8 16.5 10.1 28 10.1zM7403.7 315.3c0 45.1-11.6 80.4-34.7 105.7s-55.4 38-96.7 38c-25.8 0-48.6-5.8-68.5-17.5-19.8-11.7-35.1-28.4-45.7-50.2-10.7-21.8-16-47.2-16-76 0-44.8 11.5-79.8 34.5-105 23-25.2 55.4-37.8 97.2-37.7 40 0 71.7 12.9 95 38.6s34.9 60.5 34.9 104.1zm-201.1 0c0 63.8 23.6 95.7 70.7 95.7 46.7 0 70-31.9 70-95.7 0-63.1-23.5-94.7-70.5-94.7-24.7 0-42.5 8.2-53.6 24.5-11.1 16.3-16.6 39.8-16.6 70.2zM7841.5 354.8c0 32.5-11.7 58-35.2 76.5-23.5 18.5-55.9 27.7-97.2 27.7-41.3 0-75.2-6.4-101.5-19.2v-56.5c17 8 34.8 14.2 53.1 18.5 18.7 4.5 36.2 6.8 52.4 6.8 23.7 0 41.1-4.5 52.4-13.5 11.2-9 16.9-21.1 16.9-36.2 0-13.7-5.2-25.2-15.5-34.7-10.3-9.5-31.7-20.7-64-33.7-33.3-13.5-56.8-28.9-70.5-46.2-13.6-17.3-20.5-38.1-20.5-62.5 0-30.5 10.8-54.5 32.5-72s50.7-26.3 87.2-26.2c35 0 69.8 7.7 104.5 23l-19 48.7c-32.5-13.7-61.5-20.5-87-20.5-19.3 0-34 4.2-44 12.6-10 8.4-15 19.5-15 33.4 0 9.5 2 17.6 6 24.4 4 6.7 10.6 13.1 19.7 19.1s25.7 13.9 49.5 23.7c26.8 11.2 46.5 21.6 59 31.2 12.5 9.7 21.7 20.6 27.5 32.7 5.7 12.1 8.7 26.5 8.7 42.9zM8111.1 454l-8.2-36.2h-3c-8.2 12.8-19.8 22.9-34.9 30.2-15.1 7.3-32.3 11-51.6 11-33.5 0-58.5-8.3-75-25s-24.8-41.9-24.7-75.7V177.6h59.3V348c0 21.2 4.3 37 13 47.6s22.2 15.9 40.7 15.9c24.7 0 42.8-7.4 54.4-22.1s17.4-39.4 17.4-74.1V177.6h59V454h-46.4zM8362.7 459c-41.8 0-73.6-12.2-95.3-36.6s-32.6-59.4-32.6-105.1c0-46.5 11.4-82.2 34.1-107.2 22.7-25 55.6-37.5 98.6-37.5 29.2 0 55.4 5.4 78.7 16.2l-17.7 47.2c-24.8-9.7-45.3-14.5-61.5-14.5-47.8 0-71.7 31.7-71.7 95.2 0 31 6 54.3 17.9 69.8 11.9 15.6 29.4 23.4 52.4 23.4 26 0 51.6-6.7 74.2-19.5v51.2c-10.4 6.1-21.8 10.6-33.6 13.2-12 2.9-26.5 4.2-43.5 4.2zM8626.3 459c-41.8 0-73.6-12.2-95.3-36.6-21.7-24.4-32.6-59.4-32.6-105.1 0-46.5 11.4-82.2 34.1-107.2 22.7-25 55.6-37.5 98.6-37.5 29.2 0 55.4 5.4 78.7 16.2l-17.7 47.2c-24.8-9.7-45.3-14.5-61.5-14.5-47.8 0-71.7 31.7-71.7 95.2 0 31 6 54.3 17.9 69.8 11.9 15.6 29.4 23.4 52.4 23.4 26 0 51.6-6.7 74.2-19.5v51.2c-10.4 6.1-21.8 10.6-33.6 13.2-12 2.9-26.5 4.2-43.5 4.2zM8899.2 459c-43 0-76.6-12.5-100.8-37.6s-36.4-59.6-36.4-103.6c0-45.1 11.2-80.6 33.7-106.5 22.5-25.8 53.4-38.7 92.7-38.7 36.5 0 65.3 11.1 86.5 33.2 21.2 22.2 31.7 52.6 31.7 91.5v31.8h-184.2c.8 26.8 8.1 47.4 21.7 61.8 13.7 14.4 32.9 21.6 57.7 21.6 15.3.1 30.6-1.4 45.6-4.6 15.6-3.6 30.8-8.7 45.3-15.4v47.7c-13.8 6.7-28.4 11.5-43.5 14.5-14.4 2.9-31.2 4.3-50 4.3zm-10.7-241.9c-18.7 0-33.6 5.9-44.9 17.7-11.2 11.8-17.9 29.1-20.1 51.7H8949c-.3-22.8-5.8-40.1-16.5-51.8s-25.4-17.6-44-17.6zM9269.3 375.3c0 27-9.8 47.7-29.5 62.1-19.7 14.4-47.8 21.6-84.5 21.6-36.8 0-66.4-5.6-88.7-16.7v-50.7c32.5 15 62.7 22.5 90.7 22.5 36.1 0 54.2-10.9 54.2-32.7 0-7-2-12.8-6-17.5-4-4.7-10.6-9.5-19.7-14.5-9.2-5-21.9-10.7-38.2-17-31.8-12.3-53.3-24.7-64.6-37s-16.9-28.3-16.9-48c0-23.7 9.5-42 28.6-55.1 19.1-13.1 45-19.6 77.8-19.6 31.8-.1 63.3 6.6 92.2 19.7l-19 44.2c-29.8-12.3-54.9-18.5-75.2-18.5-31 0-46.5 8.8-46.5 26.5 0 8.7 4 16 12.1 22s25.7 14.2 52.9 24.7c22.8 8.8 39.4 16.9 49.7 24.2s18 15.8 23 25.4c5.1 9.6 7.6 21.1 7.6 34.4zM9528.6 375.3c0 27-9.8 47.7-29.5 62.1-19.7 14.4-47.8 21.6-84.5 21.6-36.8 0-66.4-5.6-88.7-16.7v-50.7c32.5 15 62.7 22.5 90.7 22.5 36.1 0 54.2-10.9 54.2-32.7 0-7-2-12.8-6-17.5-4-4.7-10.6-9.5-19.7-14.5-9.2-5-21.9-10.7-38.2-17-31.8-12.3-53.3-24.7-64.6-37-11.2-12.3-16.9-28.3-16.9-48 0-23.7 9.5-42 28.6-55.1 19.1-13.1 45-19.6 77.8-19.6 31.8-.1 63.3 6.6 92.2 19.7l-19 44.2c-29.8-12.3-54.9-18.4-75.2-18.4-31 0-46.5 8.8-46.5 26.5 0 8.7 4 16 12.1 22s25.7 14.2 52.9 24.7c22.8 8.8 39.4 16.9 49.7 24.2 10.3 7.3 18 15.8 23 25.4 5.1 9.5 7.6 21 7.6 34.3zM3924.2-3.5c1.8 1.8 4.7 1.9 6.5.1 1.2-1.1 1.7-2.7 1.3-4.3-1.5-7-3.5-14.5-5.8-16.8-4.7-4.7-20.7-2.7-13.3 7.7 3.5 4.8 7.3 9.2 11.3 13.3zM3544.1-26.9c1.3 0 2.6-.3 3.7-.8l34.3-15.7c4.5-2.1 6.5-7.4 4.4-11.9-.4-.8-.9-1.6-1.5-2.3-1.1-1.2-27.3-29.1-89.5-29.1h-2c-5 .1-9 4.1-8.9 9.1 0 2.6 1.2 5.1 3.3 6.8l50.5 41.8c1.5 1.4 3.6 2.1 5.7 2.1zm16.7-26.5l-15.3 7-24.7-20.4c18.7 2.9 31.8 8.6 40 13.4zM3704.8 6.9c.9.1 1.8.1 2.7.1 28.1 0 50.9-27 51.9-28.2 2.5-3 2.8-7.3.7-10.6-.9-1.3-21.4-32.9-50.7-34.7s-53.6 26.9-54.6 28.1c-2.5 3-2.8 7.3-.7 10.6.8 1.3 21.4 32.9 50.7 34.7zm3.5-55.5c14.1.9 26.3 13.4 32.4 20.9-7 6.7-20.7 17.5-34.8 16.6-14.1-.9-26.3-13.4-32.4-20.9 7-6.6 20.7-17.4 34.8-16.6zM3484.4 30.4c1.1 0 2.3-.2 3.3-.6 9.8-3.7 20.2-5.7 30.7-5.8 5.2.1 9.6-4.1 9.7-9.3.1-5.2-4.1-9.6-9.3-9.7-6.6.1-13.2.7-19.6 2-6.2 1.2-12.2 2.9-18.1 5.1-4.9 1.9-7.3 7.4-5.4 12.3 1.4 3.6 4.9 6 8.7 6zM3486.8 987.8l-3.2.3c-9 .8-18.1 1.3-27.2 1.5s-18.3 0-27.5-.5c-4-.2-8.1-.5-12.1-.9-5.2-.4-9.8 3.6-10.1 8.8-.4 5.1 3.4 9.5 8.4 10.1 4.2.4 8.5.7 12.7.9 7.4.4 14.8.6 22.1.6 2.3 0 4.6 0 6.8-.1 9.5-.2 19.1-.7 28.6-1.6l3.3-.3c5.2-.5 9-5.2 8.5-10.4-.4-5.2-5.1-9-10.3-8.4zM3347.6 976.1l-3.8-1c-11-2.9-22-6.2-32.7-9.9-10.2-3.5-20.3-7.5-30-11.7-4.8-2.1-10.4.1-12.5 4.9s.1 10.4 4.9 12.5c10.2 4.4 20.8 8.6 31.4 12.2 11.2 3.8 22.6 7.3 34.1 10.3l3.9 1c5.2.9 10.1-2.5 11-7.7 1-4.5-1.8-9.1-6.3-10.6zM3124.7 817.8c-6.2-10.6-11.8-21.5-16.8-32.7-4.3-9.7-8.3-19.6-11.7-29.7-1.7-5-7.1-7.6-12.1-5.9-5 1.7-7.6 7.1-5.9 12.1 3.6 10.6 7.8 21.2 12.3 31.3 5.3 11.8 11.2 23.4 17.8 34.5l.6 1.1c1.7 2.9 4.8 4.7 8.2 4.7 1.7 0 3.4-.5 4.8-1.3 4.5-2.7 6-8.5 3.4-13l-.6-1.1zM3834.7 527.9c-2-9.3-4.4-18.6-7.1-27.6-3.7-12.2-8.2-24.1-13.3-35.7-1-2.2-2-4.5-3-6.7-2.1-4.8-7.7-7-12.5-4.9-4.8 2.1-7 7.7-4.9 12.5 0 .1.1.2.2.3 1 2.1 1.9 4.2 2.8 6.3 4.8 11 9 22.2 12.5 33.7 2.6 8.5 4.8 17.2 6.7 26 1.3 5.1 6.4 8.2 11.5 6.9 4.9-1.1 8-5.8 7.1-10.8zM3435.6 98.2c0-2.6.1-5.2.4-7.7.8-6.5 2.5-12.8 5.1-18.8 2-4.8-.2-10.4-5.1-12.4-4.7-2-10.1.1-12.3 4.7-3.4 7.7-5.7 15.9-6.6 24.3-.4 3.3-.6 6.6-.6 9.9 0 13.6 3.1 28.1 9.2 43 2 4.9 7.5 7.2 12.4 5.2s7.2-7.5 5.2-12.4c-5.1-12.6-7.7-24.7-7.7-35.8zM3079.9 687.1c-.3-2.2-.7-4.5-1-6.7-1.7-11.6-3.1-24.1-4.2-37.1-.8-8.5-1.4-17.5-1.8-26.7-.3-5.2-4.7-9.3-10-9-5.2.3-9.3 4.7-9 10 .5 9.4 1.1 18.6 1.9 27.4 1.2 13.3 2.6 26.2 4.4 38.1.3 2.3.7 4.6 1 6.9.7 4.6 4.7 8 9.4 8 .5 0 1 0 1.5-.1 5-.7 8.6-5.6 7.8-10.8zM3219.8 919.9l-1.5-1c-9.6-6.6-18.8-13.7-27.7-21.4-8.3-7.2-16.2-14.8-23.8-22.9-3.6-3.8-9.6-4-13.4-.5-3.8 3.6-4 9.6-.5 13.4 16.4 17.6 34.7 33.3 54.5 46.9l1.5 1.1c4.5 2.8 10.3 1.4 13.1-3.1 2.8-4.1 1.8-9.6-2.2-12.5zM3772.8 814.9c4.5 2.7 10.3 1.3 13-3.2 2.9-4.7 5.7-9.6 8.3-14.4 5.8-10.5 11.1-21.5 15.8-32.6 2.7-6.4 5.3-12.9 7.7-19.4 1.8-4.9-.7-10.4-5.6-12.2-4.9-1.8-10.4.7-12.2 5.6-2.3 6.2-4.7 12.4-7.3 18.5-4.5 10.5-9.5 21-15 30.9-2.5 4.6-5.2 9.2-7.9 13.7-2.8 4.6-1.3 10.4 3.2 13.1zM3748.9 362.3c-6.8-8.2-14.1-16.3-21.7-24.1-3.7-3.8-9.7-3.9-13.4-.2-3.8 3.7-3.9 9.7-.2 13.4 7.2 7.5 14.2 15.2 20.8 23 8.4 10 16.5 20.5 24.1 31.2 2.8 4.4 8.7 5.7 13.1 2.9 4.4-2.8 5.7-8.7 2.9-13.1-.2-.3-.4-.5-.6-.8-7.9-11-16.3-21.9-25-32.3zM3619.3 946.4c-3.7 2.1-7.5 4.2-11.3 6.1-14.6 7.6-29.8 14-45.4 19.2-2.4.8-4.9 1.6-7.3 2.3-5 1.5-7.9 6.7-6.5 11.8 1.5 5 6.7 7.9 11.8 6.5.1 0 .2-.1.3-.1 2.6-.8 5.2-1.6 7.7-2.5 16.5-5.5 32.6-12.3 48.1-20.3 3.9-2 7.9-4.2 11.9-6.4 4.5-2.7 6-8.5 3.3-13-2.6-4.4-8.1-5.9-12.6-3.6zM3741.2 857.3c-3.9-3.5-9.9-3.2-13.4.8-3.7 4.1-7.6 8.3-11.5 12.4-8 8.2-16.3 16.3-24.8 23.8-4.7 4.2-9.6 8.4-14.5 12.4-3.9 3.5-4.2 9.5-.7 13.4 3.3 3.6 8.8 4.2 12.7 1.3 5.1-4.2 10.2-8.5 15.1-12.9 8.8-7.9 17.5-16.2 25.8-24.8 4.1-4.3 8.2-8.6 12-12.9 3.6-4 3.3-10-.7-13.5.1 0 .1 0 0 0zM3545.3 218.4l-3-1.3c-11.9-4.9-22-9.6-31-14.3-9.5-4.9-18.6-10.6-27.2-17-4.2-3.2-10.2-2.3-13.3 1.9-3.2 4.2-2.3 10.2 1.9 13.3 9.4 7 19.3 13.2 29.7 18.6 9.5 5 20.2 10 32.6 15.1l3 1.2c4.8 2.1 10.4 0 12.5-4.8 2.1-4.8 0-10.4-4.8-12.5-.1-.1-.2-.2-.4-.2zM3672.3 289.9c-10.6-8.1-21.8-15.9-33.3-23.4-4.8-3.1-9.6-6.1-14.6-9-.3-.4-.6-.7-.9-1l-12.7-12c-1.8-1.7-4.1-2.6-6.6-2.5-2.4.1-4.7 1.2-6.3 3l-3.4 3.8c-3.3 3.7-3 9.4.7 12.7.6.5 1.2.9 1.9 1.3l1.7.9c.8 1.1 1.9 2 3.1 2.7 9.2 5.1 18.2 10.5 26.8 16.1 11.1 7.2 21.9 14.8 32.1 22.5 4.2 3.2 10.2 2.4 13.3-1.8 3.2-4.2 2.4-10.2-1.8-13.3z"/><path class="st1" d="M4103.4 579.6l-59.9-21.1c-2.3-6.1-8.5-9.9-15-9.2l-70.9 6.9c-27.1 2.6-53.9 7.1-80.4 13.3-5-42.5-16.5-83.9-33.8-123l43.1-66.2 23.8 7.3L3941 456c3 6.5 10.4 9.8 17.2 7.5l31 19c4.2 2.6 9.8 1.3 12.4-3 1.6-2.6 1.8-5.8.5-8.5l-15.8-33.6c.6-3 .1-6.2-1.3-8.9l-24-46.5 49.8 21.3c3.2 1.4 6.8 1.5 10.1.3l40.4 14.8c4.7 1.7 9.8-.7 11.5-5.4 1.1-3 .5-6.3-1.5-8.8l-25.6-31.5c1.2-6.6-2.4-13.1-8.6-15.5l-53.2-20.9 42.5-8.7c5-1 9.1-4.8 10.5-9.7l44.1-18c4.6-1.9 6.8-7.1 5-11.7-1.2-2.9-3.9-5-7-5.5l-41-6.2c-3.1-5.9-9.9-8.7-16.3-6.8l-33.5 10 32.6-22.4c4.8-3.3 7.1-9.2 5.6-14.9l26.8-34.2c3.1-3.9 2.4-9.6-1.5-12.6-2.5-2-5.8-2.5-8.8-1.3l-41.4 16.1c-4.6-2.3-10.1-1.8-14.3 1.2l-51.2 36.9c-50.2 36.1-93.8 80.5-128.9 131.3-27.1-40.9-60.5-77.2-99-107.5a600 600 0 0 0-79.6-52.3c-20.1-11.1-41.6-21.7-64.8-31.9-2.7-1.2-5.3-2.3-8-3.5-11.2-4.9-22.5-9.8-32.8-15.5-22.8-12.6-41.1-29-43.8-57.4-2.4-25.7 23.3-44.6 49.5-48.1h.1c15.4-2.3 31.7-.3 42.4 5 3.6 1.8 7.2 5.3 11 9.7 1.7 2.5 3.6 4.9 5.7 7.1 1.4 1.9 2.9 3.8 4.4 5.8 9 12.1 19.2 25.8 33 34.2 4.6 3 9.6 5.9 14.9 8.8l.6.3c7.7 3.5 15.6 6.4 23.7 8.7 23.9 6.8 48.7 9.5 73.5 8.2 26.4-1.4 52.8-6.1 78.3-10.6 34.7-6.1 67.5-12 100.9-10.5.9.8 1.9 1.5 3 2.1 3.5 2 8.4 3.2 15.2 1.8 16.4-3.3 38.2-21 40.1-37 1-8-2.7-14.8-10-18.9-.5-.3-1-.5-1.5-.8-4.5-2.1-9.3-3.4-14.2-3.8-3.1-.3-6.2-1.3-8.9-2.8-3.5-1.9-6.4-4.6-8.5-8l-.4-.7c-1.3-2-3-3.7-5.1-4.9-2.1-1.2-4.5-1.9-7-2-5.3-.3-10.4 2-13.6 6.1l-10.7 13.9-8.8-11.4c-1.1-1.4-2.5-2.6-4-3.5-7.3-4.3-16.7-2.2-21.5 4.8l-8.2 12.5-1.2.1-14.7-14.1c-.8-.8-1.7-1.5-2.7-2.1-7.4-4.3-16.8-2.1-21.6 5l-8.7 13.7-1.2.1-13.2-13.3c-1.1-1.1-2.4-2-3.8-2.7-2.4-1.2-5-1.8-7.7-1.7-4.5.1-8.7 2-11.7 5.4L3753.3 83l-4.9.2-11.4-10.9c-1.1-1.1-2.4-1.9-3.8-2.6-6.5-3.1-14.3-1.6-19.1 3.7l-8.1 9.1c-2.3-1.9-3.8-4.6-4.2-7.6-1.3-6.9 1.2-14.9 5.9-19.6 3-2.9 6.5-5.3 10.3-7l17.1 16.8c.8.8 1.8 1.6 2.8 2.2 7.2 4.4 16.7 2.2 21.1-5.1l11.2-18.5 17.4 17.2c.8.8 1.8 1.6 2.8 2.2 7.2 4.4 16.7 2.1 21.1-5.1.1-.1.1-.2.2-.3l11-19 10.9 14.7c5 6.8 14.7 8.3 21.5 3.2 1.6-1.2 3-2.7 4-4.4l12.2-20.3 10.2 13.3c1.2 1.6 2.8 3 4.5 4 7.3 4.3 16.7 1.8 21-5.6.3-.5.5-1 .8-1.5l6.7-15.2 12 13.7c5.6 6.4 15.3 7 21.7 1.4 2-1.8 3.6-4.1 4.4-6.7.1-.4.3-.9.3-1.4l6.8-40.8c2.1-11.1-1.7-23.7-9.8-32.1-3.5-3.6-7.5-6.7-11.8-9.1-9.3-5.3-19.8-8.1-28.1-10.2-77.1-20.2-152.7-38.7-230.1-43.8-11.1-.7-22.5-1.2-33.8-1.2h-.2v4.8-4.8h-.1c-8.4 0-16.9.1-25.3.4h-.9c-1.8.1-3.7.2-5.5.3h-.6l-1.9.1h-.2c-2.8.2-5.6.3-8.5.5h-.5l-7.5.6-1.4.1-6 .6c-4.1-1.3-8.4-2.6-12.7-3.8h-.2l-3.6-1-.8-.2-3.2-.8-1-.3-3-.7-1.3-.3-2.9-.7-1.4-.3-2.9-.6-1.6-.3-2.9-.6-1.6-.3-3-.6-1.7-.3-3-.5-1.8-.3-3.1-.5-1.8-.3-3.2-.5-1.8-.3-3.5-.5-1.7-.2-3.9-.5-1.4-.2c-3.6-.4-7.3-.8-11-1.2l-1.4-.1-4.2-.4-2.4-.2-3.4-.2-1.8-.1h-.6l-3.6-.2-2.5-.1h-.1l-3.5-.2-2.7-.1-3.5-.1-2.8-.1-3.6-.1-2.9-.1h-20.1l-3.9.1h-.4l-2.7.1-3.4.1-1.6.1-2 .1-4 .2-1.3.1-2 .1-4.6.3-2.8.2c-2.4.2-4.9.3-7.4.5h-.1c-4.8.3-9.1 3.1-11.3 7.4-1 1.9-1.6 4-1.7 6.2v.5c0 3.7 1.4 7.2 4 9.8.2.2.4.4.7.6l.5.4.4.4 39.3 29.9c-5.7 2.7-11.9 5.7-17.1 8.2l-.6.3-111.4 20c-4.9.9-8.1 5.6-7.3 10.5 0 .2.1.5.2.7l14.2 53c-4.8 6.2-9.4 12.5-13.7 19l-80 84c-3.4 3.6-3.3 9.3.3 12.7.2.1.3.3.5.4l30.7 25.7c-.3 1.7-.5 3.4-.8 5.1-17.6-6.6-34.6-14.9-50.7-24.6-23.5-14.1-45.4-30.5-65.6-49.1-3.2-3.1-8.2-3.4-11.7-.7s-4.6 7.6-2.5 11.5c6.5 12.1 7.8 26.3 3.7 39.4v.1c0 .1-.1.2-.1.3-.1.3-.2.7-.3 1v.2c-10.3 52.5-71 96.5-86.1 106.7-3.2 1-5.8 3.3-7 6.5l-.1.1-.1.3c0 .1-.1.2-.1.3s-.1.3-.1.4c0 .1-.1.3-.1.5s0 .2-.1.2c-.1.1 0 .1 0 .1 0 .2 0 .4-.1.6s0 .2 0 .3v1c0 .1 0 .5.1.7v.2c0 .2.1.5.2.8v.2l.3.9.1.2c.1.2.2.5.3.7.1.2.1.2.2.3 0 .1.2.3.3.5l.2.3c.1.2.2.3.3.5l.1.1c27.3 34.9 36.4 75.4 27.2 120.3-7 34.1-22.6 58.2-22.7 58.5l-.1.2-.3.6-.2.3-.1.2c-.1.2-.1.3-.2.4s-.1.2-.1.3l-.3.9c-.1.3-.1.7-.2 1V463.6c0 .1.1.5.1.7 0 .2 0 .2.1.3l.3.9c.1.3.3.6.4.9l.1.2c.1.2.2.4.4.6l.2.3c.1.2.3.4.4.6l.2.2.6.6.1.1c.5.4 1 .8 1.6 1.2l.3.1c.2.1.3.2.5.2l.2.1h.1l.5.2c.8.3 1.7.6 2.6.8 53 15.7 88 48.1 103.9 96.3 12.2 37.1 8.1 70.2 8.1 70.5 0 .3-.1.7-.1 1v1.3c0 .1.1.4.1.6s0 .2.1.3.1.4.1.6l.1.3c.1.2.1.4.2.6l.1.3.3.6.1.2c.1.2.3.4.4.6l.1.2c.4.5.8 1 1.3 1.4l.2.2c.2.2.4.3.5.4l.3.2.5.3.3.1.6.3.2.1c.3.1.6.2.8.3.3.1.6.1.9.2h.3l.6.1H3173.2c51.5-3.5 99 9.4 141.2 38.2 31.7 21.6 48.3 44.6 48.5 44.8.2.2.2.3.4.4.1.1.2.2.3.4.2.3.5.5.8.8.1.1.3.2.4.3.1.1.4.3.6.4s.4.2.5.3l.5.2.6.3.4.1c.2.1.5.2.8.2h.2c4.8 1.1 9.7-1.9 10.8-6.8.1-.6.2-1.2.2-1.8 3.6-45.1 18.4-78.6 44.1-99.7 12-9.6 26-16.6 40.9-20.4 6.4 27.5 5.3 56.3-3.2 83.3l-65.4 48.5c-4 3-4.8 8.6-1.9 12.6.1.1.2.3.3.4l15.1 18c-7 6.1-14.5 11.7-22.4 16.7l-102.2-11.2c-4.9-.6-9.4 3-10 7.9v.6l-1.4 27.8c-12.8-1.6-25.4-4.6-37.5-8.9l-37.7-56.3c-2.8-4.1-8.4-5.2-12.5-2.5-.1.1-.3.2-.4.3l-19.9 15c-33.8-32.4-54.5-75.3-56.9-118.8 0-.5-.1-2.1-.1-4.2-.2-6.4-.6-18.2-1.2-27.7-.1-.7.2-1.4.8-1.9.5-.5 1.3-.8 2-.7l27.7 2.8c3.6.4 7.1-1.5 8.8-4.6 1.7-3.2 1.4-7.1-.9-9.9l-75-94.5c-.8-1.1-1.9-1.9-3.1-2.5-1.2-.6-2.6-.9-4-.9-2.8 0-5.4 1.3-7.1 3.5l-76 96.9c-2.3 2.9-2.6 6.8-.8 10 .8 1.4 1.9 2.5 3.2 3.3 1.7 1.1 3.7 1.5 5.7 1.3l29.6-3.4c.4 0 .7-.1 1.1-.2.6-.1 1.1-.1 1.7.2.2.1.3.2.5.3.8.6 1.2 1.5 1.2 2.5 0 199.6 101.5 306.8 186.6 361.6 8.8 5.7 17.9 11.1 27.1 16.1 64.6 35.4 138.3 55.3 210.7 56.5H3460.1c33.6-.4 66.9-5 99.3-13.7 40.7-11 79.4-28.3 114.8-51.1 35.4-22.7 67.5-50.3 95.2-82 27.9-31.6 51.2-66.9 69.4-105 3.5-7.4 6.9-14.9 10-22.5.7 1.1 1.4 2 2.3 2.9 2.1 2 4.8 3.3 7.6 3.8l19.7 36.6c2.4 4.4 7.8 6 12.2 3.7 2.7-1.4 4.4-4.1 4.7-7.1l3.7-42.1c2.2-2.5 3.5-5.7 3.7-9l3.1-62.3 38.5 51.6c2.7 3.6 6.8 5.7 11.2 5.9l35.8 35.3c3.5 3.5 9.2 3.4 12.7-.1 2.2-2.3 3.1-5.5 2.3-8.6l-11.6-43.6c1-1.4 1.7-2.9 2.1-4.6 1.2-4.4.2-9.2-2.7-12.8l-42.5-53.6 50.1 16.8c5.5 1.8 11.5.2 15.4-4l54.8 4.4c5 .4 9.3-3.2 9.7-8.2.3-3.2-1.1-6.2-3.7-8.1l-37.3-26.7c.1-6.8-4.6-12.8-11.2-14.4l-45.6-10.9 51.9-3.9c4-.3 7.7-2.2 10.2-5.3.5-.6 1-1.3 1.4-2l54.6-6.2c4.9-.5 8.5-5 8-9.9-.8-3.9-3.2-6.8-6.5-7.9zm-294.6 10.2c-3.4-58.2-21.9-114.5-53.6-163.3-36-55.6-88.1-104.5-146.7-137.6-19.1-10.8-39.3-20.1-58.9-29-29.8-13.6-60.6-27.7-87-47.3-32.8-24.2-54.7-59.7-60.1-97.3-5.6-38.4 7.8-76.2 37.5-106.6 13.9-14.2 30.2-25.9 47.9-34.7.5-.3 1-.5 1.4-.9 6.2-4.7 7.4-13.5 2.7-19.7-.8-1-1.7-1.9-2.7-2.7l-22.6-17.2-.1-.1-42.8-32.6c76.7-4.5 129 6.5 159.8 16.8h.2c28.2 9.4 41.4 19.2 41.5 19.3 3.9 3 9.6 2.3 12.6-1.7 2.4-3.2 2.5-7.5.2-10.7l-6.6-9.2c4.7-.1 9.5-.1 14.2-.1h.2v-4.6 4.6c10.9.1 22 .5 32.7 1.2 75.9 5 150.6 23.4 226.8 43.3 7.2 1.9 15.7 4.1 22.8 7.9 3.2 1.7 6 3.8 8.5 6.3 4.1 4.3 6.2 11 5.1 16.5v.2l-5.7 34.3-11-12.5c-5.6-6.4-15.3-7-21.7-1.4-1.7 1.5-3 3.3-3.9 5.4l-6.5 14.8-9.8-12.8c-5.1-6.7-14.8-8.1-21.5-2.9-1.5 1.2-2.8 2.6-3.8 4.3L3845.7 40l-10.9-14.7c-5-6.8-14.7-8.3-21.5-3.2-1.7 1.2-3.1 2.8-4.2 4.6l-11.3 19.6-17.6-17.3c-.8-.8-1.8-1.6-2.8-2.2-7.2-4.4-16.7-2.2-21.1 5v.1l-11.2 18.5-18.9-18.5c-2.5-2.4-6.1-3.2-9.3-2.1-9.1 3.2-16.3 7.5-22.1 13.2-9 8.9-13.3 22.9-10.9 35.7 1.8 9.5 7.1 17.1 14.9 21.2.5.3 1.1.5 1.6.8 2 .9 4 1.5 6.1 2 3.2.7 6.5-.4 8.6-2.8l10.9-12.3 12.4 11.9c.5.4.9.8 1.5 1.2 1.5 1 3.4 1.5 5.2 1.4l12.6-.5c2.4-.1 4.7-1.2 6.4-3l14.3-16.2 6.2 6.3c7.6 7.7 9 9.1 10.3 9.8.3.2.6.3.9.4 1.2.5 2.5.7 3.8.6l9.7-.5c2.3-.1 4.5-1.1 6.1-2.8.6-.7 1.2-1.4 1.7-2.2l9.2-14.5 15.2 14.8c.7.7 1.5 1.2 2.3 1.6.3.1.6.3.9.4h.1c1.2.4 2.4.6 3.6.6l9.5-.5c2.3-.1 4.4-1.1 6-2.7.7-.7 1.2-1.4 1.8-2.2l8.5-12.9 8.7 11.2c1.2 1.5 2.6 2.8 4.3 3.7 1.5.8 3.2 1.2 4.9 1.2l7.5-.4c1.6-.1 3.2-.6 4.5-1.5 1.4-.9 2.6-2.1 3.6-3.4l10.5-13.7c3.4 4.6 7.7 8.5 12.7 11.4 5.1 2.9 10.7 4.7 16.5 5.3 2.9.3 5.8 1 8.5 2.2l.5.3c.3.2.6.4.8.6.1 1.3-2 6.7-9.8 13.2-8.3 6.9-16.3 9.4-18.7 8.9-1.6-2.5-4.2-4.1-7.2-4.3-36.9-2.2-73.5 4.3-108.9 10.5-25 4.4-50.8 9-76.1 10.4-22.8 1.3-45.6-1.2-67.5-7.5-7.2-2.1-14.2-4.6-21-7.7l-.8-.5c-4.5-2.5-8.8-5-12.7-7.5l-.2-.2c-10.8-6.5-19.5-18.2-27.9-29.5-3.4-4.6-6.8-9.1-10.2-13.2-3.4-5.4-5.5-11.5-6.2-17.8v-.7l-2.6-23.7c-.6-4.9-5-8.5-9.9-7.9-4.9.6-8.5 5-7.9 9.9l2.5 22.3c-13.3-4.7-29.9-6.2-46-3.8-34.6 4.6-68.4 31.2-65 67.6 2.2 23.3 12.7 42.2 32.2 57.8 7.2 5.7 14.9 10.6 23.1 14.9 10.5 5.6 21.4 10.4 32.2 15.1 2.7 1.2 5.3 2.3 7.9 3.5 20.8 9.2 40.4 18.7 58.6 28.6 28.7 15.4 56.1 33.2 81.9 53.2 90.5 70.9 150.9 177.8 162.7 287.2-17.4 4.1-34.3 9.4-50.9 15.5zm137.5-326.5l48.5-34.9c2.4 1.6 5.5 1.9 8.2.9l15.8-6.1-10.1 13c-2 2.5-2.5 5.8-1.3 8.8l-76.7 52.7c-4.1 2.9-5 8.5-2.2 12.5 2.2 3.1 6.2 4.5 9.8 3.5l84-25.1c1.3 2.7 3.8 4.7 6.8 5.1l14.7 2.2-18.6 7.6c-3.1 1.2-5.2 4.1-5.6 7.4l-69.2 14.2c-4.9 1-8 5.8-7 10.6.6 3 2.7 5.4 5.5 6.6l77.3 30.3c-.5 2.6.2 5.3 1.9 7.4l8.4 10.4-13.6-5c-2.4-.9-5.1-.7-7.4.5l-70.7-30.2c-4.6-2-9.9.2-11.8 4.7-1.1 2.5-1 5.3.3 7.7l34.6 67c-.7 2.2-.6 4.6.4 6.7l4.6 9.8-10-6.1c-2.2-1.4-4.9-1.7-7.4-.9l-29.7-66c-1.6-3.7-4.8-6.4-8.6-7.6l-32-9.9c-3.8-1.2-8 .3-10.2 3.7l-40.7 62.6c-3.1-6.2-6.4-12.4-9.8-18.5-2.3-4.1-4.6-8.1-7.1-12.1 34.7-52 78.3-97.1 128.9-133.5zm-802.1-85.4l.3.3.8.8 1.2 1.2.8.8 1.2 1.2.8.8 1.2 1.2.9.8 1.3 1.2.8.8 1.4 1.3.7.6c.7.6 1.3 1.2 2 1.8l.2.2c.7.7 1.5 1.3 2.3 1.9l.7.6 1.6 1.3.9.7 1.4 1.1 1 .7 1.4 1.1 1 .8 1.4 1 1 .7 1.5 1 1 .7 1.6 1.1.9.6 1.9 1.2.7.4 2.6 1.7.6.4 2 1.2 1 .6 1.7 1 1.1.6 1.6.9 1.1.7 1.6.9 1.1.6 1.6.9 1.1.6 1.6.9 1.1.6 1.8 1 .9.5 2.5 1.3.2.1 2.7 1.4.9.4 1.8.9 1.1.5 1.7.8 1.1.5 1.6.8 1.1.5 1.6.7 1.1.5 1.6.7 1.1.5 1.7.8 1 .5 1.9.9.7.3 2.6 1.2.7.3 1.9.8 1 .4 1.6.7 1.1.5 1.5.6 1.1.5 1.4.6 1.1.4 1.4.6 1 .4 1.5.6 1 .4 1.6.6.8.3 2.1.8.3.1 2.2.8.8.3 1.4.5.9.3 1.3.5.9.3 1.3.5.9.3 1.2.4.9.3 1.2.4.9.3 1.2.4.8.3 1.4.5.5.2 1.8.6.6.2 1.2.4.7.2 1.1.3.7.2.9.3.7.2.9.3.7.2.8.3.6.2.9.3.5.2.9.3.4.1 1.2.4c.1.4.3.9.4 1.3.1.3.2.6.4.9.1.3.1.3.2.5s.3.6.4.9l.2.4c.1.3.3.6.5.9l.2.4c.2.4.4.7.7 1.1l.1.2c.2.4.5.7.7 1.1l.1.2c.3.4.5.8.8 1.2 2.5 3.3 5.4 6.3 8.6 8.9.2 7.9 6.1 16.1 12.1 21.8-.2.2-.3.4-.4.6l-.1.2c-.1.2-.3.4-.4.7l-.1.1c-2.4 4.6-3.6 12.2 3.8 23.5l-13-1.8c-11.3-1.5-24-3.3-38.1-5.3-10.7-1.5-22-3.3-33.6-5.4-11.6-2.1-23.5-4.4-35.2-6.9-11.5-2.5-23.2-5.2-34.8-8-11-2.7-22-5.6-32.6-8.5-21.8-6-41.1-11.5-51.4-14.4 22.1-17.1 57.6-49.1 72.6-88.5zm-78.7 105.8l.9.2c10.4 3 29.8 8.5 51.7 14.5 10.7 2.9 21.9 5.8 33 8.6 11.8 2.9 23.7 5.7 35.4 8.2 11.9 2.5 24 4.9 35.8 7 11.8 2.1 23.4 4 34.3 5.5 14.1 2 26.9 3.7 38.2 5.3l16 2.2 1.6.2 1.4.2c-1.8 9.8 5.8 19.4 14.6 26.5-6.8 2.6-15.8 5.8-26.9 9.8-3 1.1-5.3 1.9-6.4 2.3-2.6 1-7.6 2.9-14.6 5.6-23.4 9-70.3 27.2-115.6 43.2l-.9.3-9.1 3.2-2.6.9-1.1.4-.5.2-6.6 2.3-.6.2c-42.2 14.4-64.4 20.2-76 22.3 7.8-15.8 13.6-32.5 17.2-49.7 8.9-43.2 2.2-84.1-19.2-119.4zm22.9 182.6l.2-.1 2.3-.6c10.5-2.8 23.3-6.7 38-11.5l.2-.1 3.8-1.2.7-.2 2.8-.9 1.9-.6 1.6-.5 3.2-1.1.4-.1c4.7-1.6 9.6-3.3 14.6-5 49.2-17 103-37.8 128.8-47.8 6.9-2.7 11.9-4.6 14.4-5.5 1.1-.4 3.3-1.2 6.2-2.2l8.8-3.1c.5 2.4 1.4 4.7 2.6 6.8 6.8 12.5 22.6 21.4 23.9 22.2h.1c2.9 1.5 5.9 2.8 9.1 3.8l-169.9 196.1c-.8-17.6-3.9-35-9.2-51.8-10.5-31.9-33.4-71.8-84.5-96.6zM3324.9 672c-39-26.9-85.1-41.5-132.4-42.2l182.6-210.7.5-.2c.4-.1.8-.3 1.2-.4.2.9.4 1.8.7 2.6l.1.2c.2.8.5 1.5.8 2.3l.2.6c.2.6.5 1.1.7 1.7.2.4.3.8.5 1.1.2.4.3.7.5 1 .2.3.4.8.6 1.1l.2.4c.5.8 1 1.7 1.5 2.4l.2.2c1.1 1.5 2.2 3 3.5 4.3-4.7 14.6-10.8 47.4-18.4 125.5-5.7 58.7-9.8 118.3-10.7 136.4-10-9.5-20.8-18.4-32.3-26.3zm87-59.4c-14.4 11.8-25.9 26.7-33.8 43.6 1.8-24.7 4.3-56.2 7.3-87.6 7.5-78.8 13.5-110.3 16.9-122.8h.2c.8.2 1.5.4 2.3.6 1.1.2 2.2.4 3.2.6l2.1.3 1 .1c.9.1 1.8.2 2.7.2h.2c5.6.4 11.3-.2 16.7-1.8h.1c.8-.2 1.5-.5 2.2-.7l.4-.2c.6-.2 1.2-.5 1.8-.7l.8-.3c.4-.2.9-.4 1.3-.6l1.2-.6.8-.5c.5-.3 1-.6 1.4-.9l.4-.2c1.9-1.2 3.7-2.6 5.4-4.2l49.2 146.9c-18.8.1-53.8 4.3-83.8 28.8zm391.7 57.1l15.7-7.9c-.5 3.1-1 6.3-1.5 9.3-1 5.2 2.4 10.1 7.5 11.1 5.2 1 10.1-2.4 11.1-7.5 0-.1 0-.2.1-.4.9-5.1 1.7-10.3 2.4-15.4l2.4 1.8 13.7 14.8-1.9 18c-32.3 150.4-152.4 279.9-298.8 319.2-31 8.3-62.9 12.6-94.9 13.1H3446.7c-69.4-1.1-140.2-20.2-202.2-54.2-8.9-4.9-17.5-10-26-15.5-81.4-52.4-178.4-155.1-178.4-346.5 0-6.5-2.9-12.6-8-16.7-.9-.7-1.9-1.3-2.9-1.9-4.3-2.4-9.3-3.1-14.1-2.1l-7.6.9 44.7-57v12.3c0 5.2 4.3 9.5 9.5 9.5s9.5-4.3 9.5-9.5v-15.2-.7l46.4 58.5-6.5-.7c-6-.6-12 1.5-16.3 5.7-4.3 4.2-6.6 10.1-6.2 16.1.6 9.1.9 20.8 1.1 27 .1 2.4.1 4.1.2 4.7.2 3.4.5 7 .9 10.5-.1.6-.1 1.3 0 1.9 4.9 39.2 13.5 75.4 25.6 107.7 14.1 37.6 32.9 69.9 56.1 96.1 31 35.1 70.4 63 117.2 83 44.5 18.8 92 29.2 140.3 30.7 97.5 3 193.1-32.5 262.2-97.3 26.4-24.9 48.9-53.5 66.8-85 17.9-31.4 31.6-65 40.5-100 1.4-6 2.9-12.2 4.1-18.4zm235-83.7c-3.8.4-6.8 3.2-7.7 6.8l-106.1 8.1c-5 .4-8.7 4.7-8.3 9.6.3 3.9 3.1 7.2 6.9 8.1l97.4 23.4c-.5 3.4.9 6.8 3.7 8.7l16.1 11.5-27.4-2.2c-3.2-.3-6.4 1.2-8.2 3.9l-.3.5-76.4-25.6c-4.7-1.6-9.8 1-11.4 5.7-1 2.9-.4 6.1 1.5 8.5l59.1 74.5c-2 2.3-2.7 5.3-1.9 8.2l4.5 17.1-15.6-15.3c-2-2-4.8-2.9-7.6-2.5l-52-69.8c-3-4-8.6-4.8-12.6-1.8-2.2 1.6-3.5 4.1-3.6 6.8l-4.2 85.5c-2 1.5-3.2 3.8-3.4 6.3l-1.4 16-8.1-15c-1.4-2.6-4-4.4-7-4.7l6.3-61.2c1.8-8.2 3.3-16.5 4.5-24.8.6-3.7-1.3-7.4-4.6-9.2-3-3.8-7.6-8.1-14.2-13.2-1.1-.8-2.1-1.6-3.1-2.4l-9.9-10.7c-2.7-3-7.1-3.7-10.7-1.9l-151 76.1-108-249.2c-2-4.6-7.3-6.7-11.8-4.7-4.6 2-6.7 7.3-4.7 11.8l111.8 257.9c2 4.6 7.3 6.7 11.8 4.7.2-.1.3-.1.5-.2l101.3-51.2c-.3 1.2-.6 2.4-.9 3.5-17.6 68.5-53.9 131.1-102.2 176.4-65.6 61.5-156.5 95.2-249.3 92.4-96.2-2.9-187.5-43.1-244.4-107.5-23-26-41.5-59-55.1-97.5 8.2 10.6 17.4 20.5 27.4 29.4 3.2 2.8 8 3 11.4.4l18.2-13.8 34 50.8c1.1 1.6 2.6 2.8 4.4 3.4 17.5 6.5 35.8 10.4 54.3 11.8 5 .4 9.3-3.4 9.6-8.3v-.2l1.4-27.7 95.8 10.5c2 .2 3.9-.2 5.6-1.2 12.4-7.5 23.9-16.3 34.4-26.3 3.4-3.3 3.7-8.6.7-12.3l-14.5-17.3 60-44.6c1.5-1.1 2.6-2.6 3.2-4.4 10.3-30.6 11.9-63.5 4.7-95 8.5-1.1 17.1-1.4 25.7-.6 4.9.6 9.4-2.9 10.1-7.8.2-1.3 0-2.7-.4-4l-47-140.3c2.8 1.8 6 2.9 9.2 3.3.8.1 1.5.1 2.3.1 6.4 0 14.9-3 22.8-15.6 14.3-22.9 10.7-41.3 5.2-52.8-3.7-7.6-9.1-14.2-15.8-19.4-4.1-2.8-9.7-1.8-12.5 2.3-2.8 4-1.9 9.5 2.1 12.4 2.5 1.8 24.1 18.8 5.8 47.9-2.9 4.6-5.9 7.4-7.8 7.2-6.6-.7-17.5-19-23.1-34.9-1.7-4.7-6.8-7.1-11.5-5.5-4 1.4-6.5 5.5-5.9 9.7.5 3.9 0 7.8-1.5 11.4l-.1.2c-.1.3-.2.6-.4.8l-.2.4c-.1.3-.3.6-.4.8l-.3.5-.3.5-.3.5-.4.7-.2.3c-.2.3-.5.6-.7.9l-.1.2c-.2.3-.5.6-.7.8l-.9.9c-5.5 5.2-13.6 7-23.7 5.4l-1-.2c-.7-3.1-3.1-5.6-6.2-6.5-1.8-.5-3.8-.6-5.6-.1l-.6-.9c-3.1-5-3.9-11.8-3.7-18v-1c0-.3 0-.6.1-.9 1.6-4.6 2.3-9.4 2-14.2-.2-5-4.4-8.8-9.4-8.6-3.9.2-7.3 2.9-8.3 6.6-1 3.9-1.7 8-2.1 12v.1c-.4.8-.9 1.5-1.5 2.1-.3.3-.6.6-1 .9h-.1c-.4.3-.8.6-1.2.8-.3.2-.6.3-.8.4-1.6-.1-3.3.3-4.7 1.1-4.8.3-10.2-1.2-14.6-3.5l-.5-.2c-1.5-.8-2.9-1.7-4.3-2.6-.5-.3-1-.7-1.5-1.1-5.4-4-10.4-9.2-11.5-12.6-.1-.3-.2-.6-.2-.9 0-.2-.1-.5.8-1.3 2.4-2 6.7-4.1 11.8-5.6 1.3-.4 2.6-.8 4-1.1l1.4-.3c4.9-1 7.9-5.8 6.9-10.7 0-.1-.1-.3-.1-.4v-.1c0-.7-.1-1.4-.3-2.1-1.1-4.8-6-7.8-10.8-6.7l-.2.1c-5.6-3.2-11-7.8-13.8-11.3-.3-.4-.6-.7-.8-1-.4-.6-.8-1.2-1-1.8 1.6-1 3.4-1.8 5.2-2.2 1.3-.4 2.5-1 3.6-1.9l.1-.1c.3-.3.6-.5.8-.8.1-.1.1-.2.2-.3.2-.3.4-.5.6-.8.1-.1.1-.3.2-.4.2-.3.3-.5.4-.8.1-.2.1-.3.2-.5s.2-.5.3-.8c.1-.3.1-.4.1-.6s.1-.5.1-.8v-.6-.7c0-.2-.1-.4-.1-.7s0-.5-.1-.7-.1-.5-.2-.7-.1-.4-.2-.6c-.1-.2-.2-.5-.3-.7-.1-.2-.2-.4-.2-.5-.1-.2-.3-.4-.4-.7-.1-.2-.2-.3-.3-.5-.1-.2-.4-.4-.5-.6s-.2-.3-.4-.4c-.1-.1-.4-.4-.6-.5s-.3-.2-.4-.3c-.1-.1-.5-.3-.7-.5s-.3-.2-.4-.3l-.4-.2c-.4-.2-.8-.5-1.2-.7l-.2-.2c-.3-.2-.7-.5-1-.7l-.4-.3c-.3-.2-.6-.4-.9-.7s-.6-.5-.8-.7l-.4-.3c-.3-.3-.7-.6-1-.9l-.2-.2c-.8-.8-1.6-1.6-2.4-2.5-.4-.4-.7-.8-1.1-1.2l-.1-.1c-.7-.8-1.4-1.7-2-2.5l-.1-.1c-1.6-2-2.9-4.3-3.8-6.7.4-.1.8-.2 1.3-.3 2.1-.3 4.3-.4 6.5-.3 2.4.1 4.7-.7 6.4-2.2.1-.1.3-.2.4-.4 1.8-1.8 2.8-4.3 2.6-6.9V291.3c-.3-5-4.6-8.7-9.5-8.5-.7 0-1.4.2-2.1.4-1.2.4-2.4.2-3.5-.3-2.6-1.4-6.3-5.1-8.8-8.4-1-1.2-1.8-2.6-2.4-4 2.6-4.2 1.3-9.8-3-12.4-.8-.5-1.6-.8-2.5-1.1-.2 0-.3-.1-.5-.2-2.2-1.4-4.2-3.3-5.8-5.3-.5-.7-1-1.3-1.4-1.9-.4-.5-.7-1.1-.9-1.7 1.3-4.8-1.4-9.8-6.2-11.1h-.1l-.8-.2h-.2c-9.4-2.7-86.5-25.6-126.7-62.5l-.1-.1c-.7-.7-1.4-1.3-2.1-2l-.4-.3-1.8-1.8-.6-.6c-.5-.5-1-1.1-1.5-1.6l-.7-.7c-.4-.5-.9-1-1.3-1.5l-.8-.9c-.4-.5-.8-.9-1.1-1.3l-.8-1c-.3-.4-.7-.8-1-1.3l-.8-1.1-.9-1.2-.8-1.1-.5-.8c1.6-6.5 2.3-13.2 2.1-19.9 14.7 11.7 30.1 22.5 46.2 32.2 21.8 13.1 43.2 23 64 29.7.7.3 1.5.6 2.2.7 20.7 6.5 40.7 9.8 59.6 9.8 5.6 0 11.2-.3 16.7-.9 2.7 12.6 8.6 37.9 17 65.3 16.1 52.6 33.5 86.1 51.5 99.7.2.2.5.4.8.5.7.4 17.8 10.5 35.1 2.1 14.9-7.3 24.2-25.5 27.6-54.2.5-4.9-3.1-9.4-8.1-9.8-4.8-.5-9.1 2.9-9.8 7.7-2.6 21.5-8.8 35.8-17.5 40.1-7.5 3.8-16-.2-17.7-1.1-30.1-23.4-55.6-124.8-62.9-162-.9-4.8-5.5-8-10.3-7.2-23.8 4-47.9 1.1-70.4-5.3.6-4.3 1.2-8.6 2-12.8.6-3.2-.6-6.5-3.1-8.5l-27.5-22.7 73.9-77.6c.4-.4.7-.8 1-1.2 5-7.5 10.4-14.9 16-22 1.8-2.2 2.4-5.2 1.7-8l-12.8-47.9 102.8-18.6c.8-.1 1.6-.4 2.3-.8l1.7-.8c4.7-2.3 17.3-8.4 25.4-12.1l13.5 10.3c-17.1 9.3-32.7 21-46.4 34.9-33.7 34.5-48.8 77.7-42.4 121.8 6.1 42.4 30.6 82.2 67.2 109.2 27.9 20.6 59.6 35.1 90.2 49.1 19.2 8.8 39.1 17.9 57.5 28.3 56.1 31.8 106 78.5 140.5 131.7 31.1 47.9 48.7 103.3 51 160.3-25.2 10.1-49.6 21.8-73.2 35.1l-64-140.8c-2.1-4.5-7.4-6.5-11.9-4.5-4.5 2.1-6.5 7.4-4.5 11.9l68.1 149.8c2.1 4.5 7.4 6.5 11.9 4.5.3-.1.5-.3.8-.4l2.9-1.7c26.1-15 53.3-28.1 81.3-39 .7-.2 1.4-.4 2-.8 21.5-8.3 43.5-15.3 65.9-21 .7-.1 1.4-.3 2.1-.5 28.5-7.1 57.6-12.2 86.9-15l67.7-6.6c.7 2.9 2.9 5.3 5.7 6.3l27.8 9.8-21.8 2.1z"/><path d="M4478.7 672.5c0 18.8-6.4 33.3-19.2 43.3-12.8 10-30.9 15.1-54.4 15.1H4375v80.5h-13.6V616.5h47.7c46.5 0 69.6 18.7 69.6 56zM4375 719.2h26.8c21.9 0 37.8-3.6 47.6-10.9 9.8-7.2 14.7-19 14.7-35.3 0-15-4.6-26.1-13.9-33.4-9.2-7.2-23.6-10.9-42.9-10.9H4375v90.5zM4641 811.4h-106.5V616.5H4641V629h-92.9v73.7h87.7v12.5h-87.7v83.6h92.9v12.6zM4712.1 726.5v84.9h-13.6V616.5h46.4c24.2 0 42 4.5 53.6 13.4 11.6 8.9 17.3 22.4 17.3 40.3 0 13.1-3.4 24.1-10.3 33.1s-17.4 15.4-31.4 19.3l52.9 88.8h-16.3l-50.3-84.9h-48.3zm0-11.7h37.2c16.4 0 29.2-3.7 38.3-11 9.1-7.3 13.6-18.1 13.6-32.5 0-14.8-4.4-25.6-13.3-32.4-8.9-6.8-23.4-10.1-43.5-10.1h-32.3v86zM4887.7 811.4h-13.6V616.5h106.8V629h-93.2v82.6h88v12.7h-88v87.1zM5131 811.4h-106.5V616.5H5131V629h-92.9v73.7h87.7v12.5h-87.7v83.6h92.9v12.6zM5271.7 626c-24.4 0-43.7 7.8-57.7 23.5-14 15.6-21.1 37.1-21.1 64.3 0 27.8 6.6 49.4 19.9 64.8 13.2 15.4 32.2 23.1 56.8 23.1 16.4 0 31.4-2.1 45.1-6.3v12c-12.9 4.5-29 6.8-48.3 6.8-27.4 0-48.9-8.8-64.7-26.5-15.7-17.7-23.6-42.4-23.6-74.1 0-19.8 3.8-37.3 11.3-52.4 7.5-15.1 18.3-26.8 32.4-35 14.1-8.2 30.5-12.3 49.1-12.3 19 0 36 3.6 51.1 10.7l-5.5 12.3c-14.2-7.4-29.1-10.9-44.8-10.9zM5422.3 811.4h-13.7V629.3h-63.3v-12.8h140.4v12.8h-63.3v182.1zM5813.8 672.5c0 18.8-6.4 33.3-19.2 43.3-12.8 10-30.9 15.1-54.4 15.1h-30.1v80.5h-13.6V616.5h47.7c46.4 0 69.6 18.7 69.6 56zm-103.7 46.7h26.8c21.9 0 37.8-3.6 47.6-10.9 9.8-7.2 14.7-19 14.7-35.3 0-15-4.6-26.1-13.9-33.4-9.2-7.2-23.6-10.9-42.9-10.9h-32.3v90.5zM5869.5 811.4V616.5h13.6v194.9h-13.6zM6002.5 811.4h-13.7V629.3h-63.3v-12.8h140.4v12.8h-63.3v182.1zM6191.3 626c-24.4 0-43.7 7.8-57.7 23.5-14 15.6-21.1 37.1-21.1 64.3 0 27.8 6.6 49.4 19.9 64.8 13.2 15.4 32.2 23.1 56.8 23.1 16.4 0 31.4-2.1 45.1-6.3v12c-12.9 4.5-29 6.8-48.3 6.8-27.4 0-48.9-8.8-64.7-26.5-15.7-17.7-23.6-42.4-23.6-74.1 0-19.8 3.8-37.3 11.3-52.4 7.5-15.1 18.3-26.8 32.4-35 14.1-8.2 30.5-12.3 49.1-12.3 19 0 36 3.6 51.1 10.7l-5.5 12.3c-14.2-7.4-29.2-10.9-44.8-10.9zM6432.2 811.4h-13.7v-95.8h-113.8v95.8H6291V616.5h13.6V703h113.8v-86.5h13.7v194.9zM6775.9 811.4h-106.5V616.5h106.5V629H6683v73.7h87.7v12.5H6683v83.6h92.9v12.6zM6981.3 712.1c0 32.7-8.6 57.4-25.7 74.2-17.2 16.8-42.3 25.1-75.6 25.1h-46.7V616.5h52.7c31.1 0 54.8 8.1 71 24.4 16.2 16.3 24.3 40 24.3 71.2zm-14.8.5c0-27.9-7.1-48.9-21.3-63-14.2-14.1-35-21.1-62.5-21.1H6847v170.9h32.3c58.1 0 87.2-28.9 87.2-86.8zM7039.5 811.4V616.5h13.6v194.9h-13.6zM7172.4 811.4h-13.7V629.3h-63.3v-12.8h140.4v12.8h-63.3v182.1zM7278.1 811.4V616.5h13.6v194.9h-13.6zM7524.1 713.7c0 30.9-7.7 55.4-23.2 73.4-15.5 18-36.8 27-64 27-27.1 0-48.4-9-63.9-27s-23.2-42.5-23.2-73.6c0-31 7.8-55.4 23.4-73.2 15.6-17.8 36.9-26.7 63.9-26.7 27.2 0 48.5 9 63.9 26.9 15.4 17.7 23.1 42.2 23.1 73.2zm-159.5 0c0 27.9 6.2 49.5 18.7 64.7 12.4 15.2 30.3 22.9 53.6 22.9 23.5 0 41.4-7.6 53.8-22.7 12.4-15.1 18.6-36.7 18.6-64.9 0-28.1-6.2-49.6-18.6-64.6-12.4-15-30.2-22.5-53.5-22.5-23.2 0-41.1 7.6-53.7 22.7-12.6 15.1-18.9 36.6-18.9 64.4zM7723.9 811.4h-13.7l-115.4-173h-1.1c1.1 20.6 1.6 36.2 1.6 46.7v126.4h-13.1v-195h13.6l115.3 172.8h.8c-.8-16-1.2-31.2-1.2-45.6V616.5h13.2v194.9z"/></svg>